<svg width="137" height="148" viewBox="0 0 137 148" fill="none" xmlns="http://www.w3.org/2000/svg">
<path d="M4.77398 124.129V23.871H124.124V85.9356H128.898V9.5484C128.895 7.01688 127.888 4.58986 126.098 2.7998C124.308 1.00975 121.881 0.00284317 119.35 0H9.54796C7.01656 0.00284317 4.58965 1.00975 2.79967 2.7998C1.0097 4.58986 0.00284304 7.01688 0 9.5484V124.129C0.00284304 126.661 1.0097 129.088 2.79967 130.878C4.58965 132.668 7.01656 133.675 9.54796 133.678H88.3187V128.903H9.54796C8.28228 128.902 7.06888 128.398 6.17391 127.503C5.27894 126.608 4.77548 125.395 4.77398 124.129ZM4.77398 9.5484C4.77548 8.28266 5.27894 7.0692 6.17391 6.17419C7.06888 5.27918 8.28228 4.7757 9.54796 4.7742H119.35C120.615 4.7757 121.829 5.27918 122.724 6.17419C123.619 7.0692 124.122 8.28266 124.124 9.5484V19.0968H4.77398V9.5484Z" fill="#159822"/>
<path d="M9.54794 9.54883H14.322V14.3233H9.54794V9.54883Z" fill="#159822"/>
<path d="M19.0959 9.54883H23.8699V14.3233H19.0959V9.54883Z" fill="#159822"/>
<path d="M28.6439 9.54883H33.4179V14.3233H28.6439V9.54883Z" fill="#159822"/>
<path d="M11.9349 102.645H52.5138V107.419H11.9349V102.645Z" fill="#159822"/>
<path d="M11.9349 112.193H52.5138V116.967H11.9349V112.193Z" fill="#159822"/>
<path d="M11.9349 93.0957H52.5138V97.8697H11.9349V93.0957Z" fill="#159822"/>
<path d="M26.2569 83.5488H52.5138V88.3233H26.2569V83.5488Z" fill="#159822"/>
<path d="M16.7089 83.5488H21.4829V88.3233H16.7089V83.5488Z" fill="#159822"/>
<path d="M19.795 53.2168L12.634 60.378C12.4123 60.5997 12.2365 60.8629 12.1165 61.1525C11.9966 61.4421 11.9348 61.7525 11.9348 62.066C11.9348 62.3795 11.9966 62.6899 12.1165 62.9795C12.2365 63.2691 12.4123 63.5323 12.634 63.754L19.795 70.9152L23.1708 67.5393L17.6974 62.066L23.1708 56.5927L19.795 53.2168Z" fill="#159822"/>
<path d="M109.103 70.9152L116.263 63.754C116.485 63.5323 116.661 63.2691 116.781 62.9795C116.901 62.6899 116.963 62.3795 116.963 62.066C116.963 61.7525 116.901 61.4421 116.781 61.1525C116.661 60.8629 116.485 60.5997 116.263 60.378L109.103 53.2168L105.727 56.5927L111.2 62.066L105.727 67.5393L109.103 70.9152Z" fill="#159822"/>
<path d="M131.899 114.955C133.885 112.969 135.238 110.438 135.785 107.683C136.333 104.928 136.052 102.072 134.977 99.4771C133.902 96.882 132.081 94.6639 129.746 93.1034C127.411 91.5428 124.665 90.7098 121.856 90.7097H112.189V81.1613C112.189 79.262 111.434 77.4405 110.091 76.0975C108.748 74.7545 106.927 74 105.028 74C103.128 74 101.307 74.7545 99.9641 76.0975C98.6211 77.4405 97.8667 79.262 97.8667 81.1613V99.311C96.3939 98.0817 94.5039 97.4677 92.5899 97.597C90.6759 97.7263 88.8855 98.5889 87.5915 100.005C86.2975 101.421 85.5996 103.282 85.643 105.2C85.6864 107.118 86.4678 108.945 87.8246 110.301L97.8667 120.343V124.129H95.4797C94.8466 124.129 94.2395 124.381 93.7918 124.828C93.3442 125.276 93.0927 125.883 93.0927 126.516V148H97.8667V128.903H126.511V148H131.285V126.516C131.285 125.883 131.033 125.276 130.585 124.828C130.138 124.381 129.531 124.129 128.898 124.129H126.511V120.343L131.899 114.955ZM122.436 117.667C122.214 117.889 122.038 118.152 121.918 118.441C121.798 118.731 121.737 119.041 121.737 119.355V124.129H102.641V119.355C102.641 119.041 102.579 118.731 102.459 118.441C102.339 118.152 102.163 117.889 101.941 117.667L91.1998 106.925C90.9512 106.676 90.754 106.381 90.6195 106.056C90.485 105.732 90.4157 105.384 90.4157 105.032C90.4157 104.681 90.4849 104.332 90.6194 104.008C90.7539 103.683 90.9511 103.388 91.1996 103.139C91.4482 102.891 91.7433 102.693 92.068 102.559C92.3928 102.424 92.7409 102.355 93.0924 102.355C93.4439 102.355 93.792 102.424 94.1168 102.559C94.4416 102.693 94.7367 102.89 94.9853 103.139L98.5657 106.72C98.8995 107.053 99.3248 107.281 99.7878 107.373C100.251 107.465 100.731 107.418 101.167 107.237C101.603 107.057 101.976 106.751 102.238 106.358C102.5 105.966 102.641 105.504 102.641 105.032V81.1613C102.641 80.5282 102.892 79.921 103.34 79.4734C103.787 79.0257 104.395 78.7742 105.028 78.7742C105.661 78.7742 106.268 79.0257 106.715 79.4734C107.163 79.921 107.415 80.5282 107.415 81.1613V93.0968C107.415 93.7299 107.666 94.337 108.114 94.7847C108.561 95.2324 109.169 95.4839 109.802 95.4839H121.856C123.72 95.4842 125.543 96.0374 127.093 97.0734C128.643 98.1095 129.851 99.5819 130.565 101.305C131.279 103.027 131.465 104.923 131.102 106.751C130.738 108.58 129.841 110.26 128.523 111.579L122.436 117.667Z" fill="#159822"/>
<path d="M116.963 133.678H121.737V138.452H116.963V133.678Z" fill="#159822"/>
<path d="M114.576 28.6465H119.35V33.4209H114.576V28.6465Z" fill="#159822"/>
<path d="M105.028 28.6465H109.802V33.4209H105.028V28.6465Z" fill="#159822"/>
<path d="M11.9349 138.451H66.8357V143.226H11.9349V138.451Z" fill="#159822"/>
<path d="M71.6098 138.451H76.3837V143.226H71.6098V138.451Z" fill="#159822"/>
<path d="M59.6748 83.5488C59.0417 83.5488 58.4346 83.8003 57.9869 84.248C57.5393 84.6957 57.2878 85.3028 57.2878 85.9359V114.581C57.2878 115.214 57.5393 115.821 57.9869 116.269C58.4346 116.717 59.0417 116.968 59.6748 116.968H78.7707C79.4038 116.968 80.0109 116.717 80.4586 116.269C80.9062 115.821 81.1577 115.214 81.1577 114.581V85.9359C81.1577 85.3028 80.9062 84.6957 80.4586 84.248C80.0109 83.8003 79.4038 83.5488 78.7707 83.5488H59.6748ZM76.3837 112.194H62.0618V88.323H76.3837V112.194Z" fill="#159822"/>
<path d="M68.9515 39.2812C68.9515 38.8242 69.3226 38.4531 69.7795 38.4531C70.2363 38.4531 70.6074 38.8242 70.6074 39.2812C70.6074 39.7381 70.2363 40.1092 69.7795 40.1092C69.3226 40.1092 68.9515 39.7381 68.9515 39.2812Z" fill="#159822" stroke="#159822"/>
<path d="M37.0805 45.8994V45.4377L36.6202 45.401C33.464 45.1497 30.9718 42.5017 30.9718 39.2825V31.3143C30.9718 30.8571 31.3426 30.4863 31.7998 30.4863H97.1354C97.5926 30.4863 97.9634 30.8571 97.9634 31.3143V39.2825C97.9634 42.5017 95.4712 45.1498 92.3151 45.401L91.8547 45.4377V45.8994V52.5626C91.8547 57.4566 90.5482 62.2591 88.0773 66.4512C85.6788 70.5202 82.2498 73.9213 78.1619 76.2861L78.1645 76.2906L78.1612 76.2864C74.1843 78.5963 69.4393 79.951 64.4676 79.951C59.6683 79.951 54.9491 78.6919 50.8168 76.3108L50.816 76.3103L50.8052 76.3041L50.8017 76.3021L50.7617 76.2791L50.7606 76.2787C42.5627 71.5304 37.0805 62.6694 37.0805 52.5626V45.8994ZM50.8276 76.3179C50.8304 76.3198 50.8314 76.3205 50.8297 76.3193L50.8276 76.3179ZM76.6564 75.2291L76.9192 75.0875V74.7889V63.1868C76.9192 56.3202 71.3339 50.7346 64.4676 50.7346C57.6013 50.7346 52.016 56.3202 52.016 63.1868V74.7889V75.0875L52.2789 75.2291C56.0062 77.2368 60.2029 78.295 64.4676 78.295C68.7325 78.295 72.9292 77.2368 76.6564 75.2291ZM78.5752 73.1352V74.1053L79.3652 73.5425C86.1009 68.7446 90.1988 60.9119 90.1988 52.5626V45.9226V45.4226H89.6988H39.2364H38.7364V45.9226V52.5626C38.7364 60.9119 42.8343 68.7446 49.57 73.5425L50.3601 74.1053V73.1352V63.1868C50.3601 55.408 56.6892 49.0786 64.4676 49.0786C72.246 49.0786 78.5752 55.408 78.5752 63.1868V73.1352ZM95.8074 38.4544H96.3074V37.9544V32.6424V32.1424H95.8074H33.1278H32.6278V32.6424V39.2825C32.6278 41.7554 34.6388 43.7665 37.1116 43.7665H37.1514H37.1921H37.2335H37.2758H37.3189H37.3628H37.4075H37.453H37.4993H37.5465H37.5944H37.6432H37.6927H37.743H37.7941H37.846H37.8987H37.9521H38.0063H38.0613H38.1171H38.1736H38.2309H38.2889H38.3477H38.4073H38.4676H38.5286H38.5904H38.6529H38.7161H38.7801H38.8448H38.9102H38.9763H39.0432H39.1108H39.179H39.248H39.3177H39.3881H39.4592H39.531H39.6035H39.6766H39.7505H39.825H39.9002H39.976H40.0526H40.1298H40.2077H40.2862H40.3654H40.4452H40.5257H40.6068H40.6886H40.771H40.8541H40.9378H41.0221H41.107H41.1926H41.2788H41.3656H41.453H41.5411H41.6297H41.7189H41.8088H41.8992H41.9902H42.0818H42.174H42.2668H42.3602H42.4541H42.5487H42.6437H42.7394H42.8356H42.9324H43.0297H43.1276H43.226H43.325H43.4245H43.5246H43.6252H43.7263H43.828H43.9302H44.0329H44.1361H44.2399H44.3441H44.4489H44.5542H44.6599H44.7662H44.873H44.9802H45.088H45.1962H45.305H45.4142H45.5239H45.634H45.7446H45.8557H45.9673H46.0793H46.1918H46.3047H46.4181H46.5319H46.6461H46.7608H46.876H46.9915H47.1075H47.224H47.3408H47.4581H47.5757H47.6938H47.8123H47.9313H48.0506H48.1703H48.2904H48.4109H48.5318H48.6531H48.7747H48.8968H49.0192H49.142H49.2651H49.3886H49.5125H49.6368H49.7614H49.8863H50.0116H50.1373H50.2633H50.3896H50.5163H50.6433H50.7706H50.8983H51.0262H51.1545H51.2831H51.4121H51.5413H51.6708H51.8007H51.9308H52.0613H52.192H52.323H52.4543H52.5859H52.7178H52.8499H52.9823H53.115H53.248H53.3812H53.5147H53.6484H53.7824H53.9166H54.0511H54.1858H54.3208H54.456H54.5914H54.727H54.8629H54.999H55.1353H55.2719H55.4086H55.5456H55.6828H55.8201H55.9577H56.0955H56.2334H56.3716H56.5099H56.6484H56.7871H56.926H57.065H57.2042H57.3436H57.4831H57.6228H57.7627H57.9027H58.0428H58.1831H58.3236H58.4641H58.6049H58.7457H58.8867H59.0278H59.169H59.3103H59.4518H59.5934H59.7351H59.8768H60.0187H60.1607H60.3028H60.445H60.5872H60.7296H60.872H61.0145H61.1571H61.2998H61.4425H61.5853H61.7281H61.871H62.014H62.157H62.3001H62.4432H62.5864H62.7296H62.8728H63.0161H63.1593H63.3027H63.446H63.5894H63.7327H63.8761H64.0195H64.1629H64.3063H64.4497H64.5931H64.7365H64.8799H65.0232H65.1666H65.3099H65.4532H65.5965H65.7397H65.8829H66.0261H66.1692H66.3123H66.4553H66.5983H66.7412H66.8841H67.0269H67.1696H67.3123H67.4549H67.5974H67.7399H67.8822H68.0245H68.1667H68.3088H68.4508H68.5927H68.7345H68.8762H69.0178H69.1593H69.3007H69.4419H69.5831H69.7241H69.865H70.0057H70.1463H70.2868H70.4271H70.5673H70.7073H70.8472H70.987H71.1265H71.2659H71.4052H71.5443H71.6832H71.8219H71.9604H72.0988H72.237H72.375H72.5128H72.6504H72.7878H72.925H73.062H73.1988H73.3354H73.4718H73.608H73.7439H73.8796H74.0151H74.1503H74.2853H74.4201H74.5546H74.6889H74.823H74.9567H75.0903H75.2235H75.3566H75.4893H75.6218H75.754H75.8859H76.0176H76.1489H76.28H76.4108H76.5413H76.6715H76.8014H76.931H77.0604H77.1893H77.318H77.4464H77.5744H77.7022H77.8296H77.9567H78.0834H78.2098H78.3359H78.4616H78.587H78.712H78.8367H78.961H79.085H79.2086H79.3318H79.4547H79.5772H79.6993H79.8211H79.9424H80.0634H80.184H80.3042H80.424H80.5434H80.6624H80.781H80.8992H81.017H81.1343H81.2513H81.3678H81.4839H81.5995H81.7148H81.8296H81.9439H82.0578H82.1713H82.2843H82.3969H82.509H82.6207H82.7319H82.8426H82.9529H83.0626H83.172H83.2808H83.3891H83.497H83.6044H83.7113H83.8177H83.9236H84.0289H84.1338H84.2382H84.3421H84.4454H84.5482H84.6505H84.7523H84.8536H84.9543H85.0545H85.1541H85.2532H85.3518H85.4498H85.5472H85.6441H85.7405H85.8362H85.9315H86.0261H86.1202H86.2137H86.3066H86.3989H86.4907H86.5818H86.6724H86.7624H86.8517H86.9405H87.0287H87.1162H87.2032H87.2895H87.3752H87.4603H87.5447H87.6286H87.7118H87.7943H87.8763H87.9575H88.0382H88.1182H88.1975H88.2762H88.3542H88.4315H88.5082H88.5843H88.6596H88.7343H88.8083H88.8816H88.9542H89.0261H89.0974H89.1679H89.2378H89.3069H89.3754H89.4431H89.5101H89.5764H89.642H89.7069H89.771H89.8344H89.8971H89.959H90.0202H90.0807H90.1404H90.1993H90.2575H90.315H90.3717H90.4276H90.4828H90.5372H90.5908H90.6436H90.6957H90.747H90.7975H90.8472H90.8961H90.9442H90.9915H91.0381H91.0838H91.1287H91.1728H91.216H91.2585H91.3001H91.3409H91.3809H91.42H91.4583H91.4958H91.5324H91.5682H91.6031H91.6372H91.6704H91.7028H91.7343H91.7649H91.7947H91.8236C93.7764 43.7665 95.4347 42.5 96.0503 40.7643L96.2869 40.0972H95.579H75.0913C74.6275 40.0972 74.2633 39.7332 74.2633 39.2825C74.2633 38.8252 74.634 38.4544 75.0913 38.4544H95.8074Z" fill="#159822" stroke="#159822"/>
<path d="M55.6719 63.1867C55.6719 58.337 59.6181 54.3906 64.4676 54.3906C69.3171 54.3906 73.2633 58.337 73.2633 63.1867C73.2633 68.0364 69.3171 71.9828 64.4676 71.9828C59.6181 71.9828 55.6719 68.0364 55.6719 63.1867ZM57.3278 63.1867C57.3278 67.1241 60.5303 70.3267 64.4676 70.3267C68.405 70.3267 71.6074 67.1241 71.6074 63.1867C71.6074 59.2492 68.405 56.0466 64.4676 56.0466C60.5303 56.0466 57.3278 59.2492 57.3278 63.1867Z" fill="#159822" stroke="#159822"/>
<path d="M60.9837 63.187C60.9837 61.2664 62.547 59.7031 64.4676 59.7031C66.3882 59.7031 67.9515 61.2664 67.9515 63.187C67.9515 65.1076 66.3882 66.6709 64.4676 66.6709C62.547 66.6709 60.9837 65.1076 60.9837 63.187ZM62.6397 63.187C62.6397 64.1954 63.4592 65.015 64.4676 65.015C65.476 65.015 66.2956 64.1954 66.2956 63.187C66.2956 62.1786 65.476 61.3591 64.4676 61.3591C63.4592 61.3591 62.6397 62.1786 62.6397 63.187Z" fill="#159822" stroke="#159822"/>
</svg>
