<svg width="19" height="31" viewBox="0 0 19 31" fill="none" xmlns="http://www.w3.org/2000/svg">
<path d="M2.96731 30.9497C2.38416 30.9542 1.81922 30.7384 1.37694 30.3421C1.16279 30.1534 0.989663 29.9193 0.868974 29.6555C0.748286 29.3916 0.682782 29.104 0.676942 28.8117C0.671102 28.5195 0.725016 28.2293 0.83506 27.9604C0.945103 27.6915 1.10872 27.4501 1.31514 27.2523L13.2162 15.4983L1.31514 3.7442C1.10872 3.54637 0.945103 3.30493 0.83506 3.03606C0.725016 2.76719 0.671102 2.47702 0.676942 2.18475C0.682782 1.89249 0.748286 1.60485 0.868974 1.34099C0.989663 1.07713 1.16279 0.843075 1.37694 0.654381C1.83346 0.253914 2.4136 0.0393132 3.01012 0.0501994C3.60663 0.0610856 4.1791 0.296749 4.62189 0.713628L18.0565 13.9817C18.2566 14.1745 18.4163 14.4085 18.5255 14.6688C18.6348 14.9291 18.6912 15.2102 18.6912 15.4943C18.6912 15.7785 18.6348 16.0596 18.5255 16.32C18.4163 16.5803 18.2566 16.8143 18.0565 17.0071L4.62189 30.2726C4.17379 30.7107 3.58164 30.9531 2.96731 30.9497Z" fill="#159822"/>
</svg>
