<svg width="47" height="56" viewBox="0 0 47 56" fill="none" xmlns="http://www.w3.org/2000/svg">
<path d="M0.000102997 31.5606C-0.00673294 30.6542 0.321575 29.7761 0.924343 29.0887C1.21135 28.7558 1.56736 28.4867 1.9687 28.2991C2.37004 28.1116 2.80755 28.0097 3.2521 28.0007C3.69664 27.9916 4.138 28.0754 4.54697 28.2464C4.95593 28.4175 5.32317 28.6718 5.62407 28.9926L23.5023 47.4902L41.3807 28.9926C41.6816 28.6718 42.0488 28.4175 42.4578 28.2464C42.8668 28.0754 43.3081 27.9916 43.7527 28.0007C44.1972 28.0097 44.6347 28.1116 45.0361 28.2991C45.4374 28.4867 45.7934 28.7558 46.0804 29.0887C46.6895 29.7982 47.016 30.6999 46.9994 31.6271C46.9828 32.5543 46.6244 33.444 45.9903 34.1323L25.8092 55.0134C25.5158 55.3245 25.1599 55.5728 24.764 55.7425C24.368 55.9123 23.9405 56 23.5083 56C23.0761 56 22.6485 55.9123 22.2525 55.7425C21.8565 55.5728 21.5007 55.3245 21.2073 55.0134L1.03012 34.1323C0.363655 33.4358 -0.00498581 32.5154 0.000102997 31.5606Z" fill="#159822"/>
<path d="M0.000102997 17.5606C-0.00673294 16.6542 0.321575 15.7761 0.924343 15.0887C1.21135 14.7558 1.56736 14.4867 1.9687 14.2991C2.37004 14.1116 2.80755 14.0097 3.2521 14.0007C3.69664 13.9916 4.138 14.0754 4.54697 14.2464C4.95593 14.4175 5.32317 14.6718 5.62407 14.9926L23.5023 33.4902L41.3807 14.9926C41.6816 14.6718 42.0488 14.4175 42.4578 14.2464C42.8668 14.0754 43.3081 13.9916 43.7527 14.0007C44.1972 14.0097 44.6347 14.1116 45.0361 14.2991C45.4374 14.4867 45.7934 14.7558 46.0804 15.0887C46.6895 15.7982 47.016 16.6999 46.9994 17.6271C46.9828 18.5543 46.6244 19.444 45.9903 20.1323L25.8092 41.0134C25.5158 41.3245 25.1599 41.5728 24.764 41.7425C24.368 41.9123 23.9405 42 23.5083 42C23.0761 42 22.6485 41.9123 22.2525 41.7425C21.8565 41.5728 21.5007 41.3245 21.2073 41.0134L1.03012 20.1323C0.363655 19.4358 -0.00498581 18.5154 0.000102997 17.5606Z" fill="#159822" fill-opacity="0.6"/>
<path d="M0.000102997 3.56056C-0.00673294 2.65417 0.321575 1.7761 0.924343 1.08866C1.21135 0.755818 1.56736 0.486724 1.9687 0.299139C2.37004 0.111555 2.80755 0.00974307 3.2521 0.000666011C3.69664 -0.00841105 4.138 0.0753872 4.54697 0.246426C4.95593 0.417465 5.32317 0.671767 5.62407 0.99261L23.5023 19.4902L41.3807 0.99261C41.6816 0.671767 42.0488 0.417465 42.4578 0.246426C42.8668 0.0753872 43.3081 -0.00841105 43.7527 0.000666011C44.1972 0.00974307 44.6347 0.111555 45.0361 0.299139C45.4374 0.486724 45.7934 0.755818 46.0804 1.08866C46.6895 1.79822 47.016 2.69994 46.9994 3.62709C46.9828 4.55425 46.6244 5.44403 45.9903 6.13226L25.8092 27.0134C25.5158 27.3245 25.1599 27.5728 24.764 27.7425C24.368 27.9123 23.9405 28 23.5083 28C23.0761 28 22.6485 27.9123 22.2525 27.7425C21.8565 27.5728 21.5007 27.3245 21.2073 27.0134L1.03012 6.13226C0.363655 5.43577 -0.00498581 4.51541 0.000102997 3.56056Z" fill="#159822" fill-opacity="0.2"/>
</svg>
