<svg width="56" height="47" viewBox="0 0 56 47" fill="none" xmlns="http://www.w3.org/2000/svg">
<path d="M31.5606 46.9999C30.6542 47.0067 29.7761 46.6784 29.0887 46.0757C28.7558 45.7886 28.4867 45.4326 28.2991 45.0313C28.1116 44.63 28.0097 44.1925 28.0007 43.7479C27.9916 43.3034 28.0754 42.862 28.2464 42.453C28.4175 42.0441 28.6718 41.6768 28.9926 41.3759L47.4902 23.4977L28.9926 5.61931C28.6718 5.3184 28.4175 4.95117 28.2464 4.5422C28.0754 4.13324 27.9916 3.69188 28.0007 3.24733C28.0097 2.80279 28.1116 2.36528 28.2991 1.96394C28.4867 1.5626 28.7558 1.20659 29.0887 0.919582C29.7982 0.310457 30.6999 -0.0159579 31.6271 0.000600411C32.5543 0.0171587 33.444 0.375611 34.1323 1.0097L55.0134 21.1908C55.3245 21.4842 55.5728 21.8401 55.7425 22.236C55.9123 22.632 56 23.0595 56 23.4917C56 23.9239 55.9123 24.3515 55.7425 24.7475C55.5728 25.1435 55.3245 25.4993 55.0134 25.7927L34.1323 45.9699C33.4358 46.6363 32.5154 47.005 31.5606 46.9999Z" fill="#159822"/>
<path d="M17.5606 46.9999C16.6542 47.0067 15.7761 46.6784 15.0887 46.0757C14.7558 45.7886 14.4867 45.4326 14.2991 45.0313C14.1116 44.63 14.0097 44.1925 14.0007 43.7479C13.9916 43.3034 14.0754 42.862 14.2464 42.453C14.4175 42.0441 14.6718 41.6768 14.9926 41.3759L33.4902 23.4977L14.9926 5.61931C14.6718 5.3184 14.4175 4.95117 14.2464 4.5422C14.0754 4.13324 13.9916 3.69188 14.0007 3.24733C14.0097 2.80279 14.1116 2.36528 14.2991 1.96394C14.4867 1.5626 14.7558 1.20659 15.0887 0.919582C15.7982 0.310457 16.6999 -0.0159579 17.6271 0.000600411C18.5543 0.0171587 19.444 0.375611 20.1323 1.0097L41.0134 21.1908C41.3245 21.4842 41.5728 21.8401 41.7425 22.236C41.9123 22.632 42 23.0595 42 23.4917C42 23.9239 41.9123 24.3515 41.7425 24.7475C41.5728 25.1435 41.3245 25.4993 41.0134 25.7927L20.1323 45.9699C19.4358 46.6363 18.5154 47.005 17.5606 46.9999Z" fill="#159822" fill-opacity="0.6"/>
<path d="M3.56056 46.9999C2.65417 47.0067 1.7761 46.6784 1.08866 46.0757C0.755818 45.7886 0.486724 45.4326 0.299139 45.0313C0.111555 44.63 0.00974307 44.1925 0.000666011 43.7479C-0.00841105 43.3034 0.0753872 42.862 0.246426 42.453C0.417465 42.0441 0.671767 41.6768 0.99261 41.3759L19.4902 23.4977L0.99261 5.61931C0.671767 5.3184 0.417465 4.95117 0.246426 4.5422C0.0753872 4.13324 -0.00841105 3.69188 0.000666011 3.24733C0.00974307 2.80279 0.111555 2.36528 0.299139 1.96394C0.486724 1.5626 0.755818 1.20659 1.08866 0.919582C1.79822 0.310457 2.69994 -0.0159579 3.62709 0.000600411C4.55425 0.0171587 5.44403 0.375611 6.13226 1.0097L27.0134 21.1908C27.3245 21.4842 27.5728 21.8401 27.7425 22.236C27.9123 22.632 28 23.0595 28 23.4917C28 23.9239 27.9123 24.3515 27.7425 24.7475C27.5728 25.1435 27.3245 25.4993 27.0134 25.7927L6.13226 45.9699C5.43577 46.6363 4.51541 47.005 3.56056 46.9999Z" fill="#159822" fill-opacity="0.2"/>
</svg>
