<svg width="135" height="162" viewBox="0 0 135 162" fill="none" xmlns="http://www.w3.org/2000/svg">
<circle cx="67.5" cy="67.5" r="58" stroke="#D1D1D1"/>
<circle cx="67.5" cy="154.5" r="7.5" fill="#159822"/>
<path d="M132.5 67.5C132.5 103.399 103.399 132.5 67.5 132.5C31.6015 132.5 2.5 103.399 2.5 67.5C2.5 31.6015 31.6015 2.5 67.5 2.5C103.399 2.5 132.5 31.6015 132.5 67.5ZM67.5 134.5C104.503 134.5 134.5 104.503 134.5 67.5C134.5 30.4969 104.503 0.5 67.5 0.5C30.4969 0.5 0.5 30.4969 0.5 67.5C0.5 104.503 30.4969 134.5 67.5 134.5Z" fill="#159822" stroke="#159822"/>
<path fill-rule="evenodd" clip-rule="evenodd" d="M66 148L66 134L69 134L69 148L66 148Z" fill="#159822"/>
<path d="M104.631 44.7296C104.631 44.721 104.629 44.7124 104.629 44.7037C104.628 44.6694 104.626 44.6356 104.622 44.6022C104.621 44.5899 104.618 44.5776 104.617 44.5653C104.612 44.5344 104.606 44.504 104.599 44.4742C104.596 44.4624 104.593 44.4507 104.59 44.4389C104.581 44.4065 104.571 44.3747 104.559 44.3434C104.557 44.3374 104.556 44.3312 104.554 44.3254L101.429 36.3269C101.114 35.5209 100.351 35 99.4859 35H93.7969C93.1767 35 92.6741 35.5027 92.6741 36.1228C92.6741 36.7429 93.1767 37.2456 93.7969 37.2456H99.3772L101.864 43.6111H78.3553L76.8824 37.2456H85.5645C86.1846 37.2456 86.6872 36.7429 86.6872 36.1228C86.6872 35.5027 86.1846 35 85.5645 35H75.4701H64.1567H40.1407C39.2751 35 38.5125 35.5209 38.1975 36.3272L35.073 44.3254C35.0707 44.3314 35.0695 44.3375 35.0672 44.3434C35.0555 44.3746 35.0454 44.4063 35.0364 44.4389C35.0332 44.4507 35.0301 44.4624 35.0274 44.4742C35.0203 44.5042 35.0146 44.5346 35.01 44.5653C35.0082 44.5776 35.0059 44.5899 35.0043 44.6022C35.0005 44.6356 34.9984 44.6694 34.9974 44.7037C34.9973 44.7123 34.9962 44.7209 34.9961 44.7296C34.9961 44.731 34.9959 44.7324 34.9959 44.7338V61.2293C34.9959 61.8494 35.4986 62.3521 36.1187 62.3521C36.7388 62.3521 37.2415 61.8494 37.2415 61.2293V45.8567H61.0414V62.9232C61.0414 63.5907 61.4345 64.1988 62.0431 64.4727C62.266 64.573 62.5033 64.6219 62.739 64.6219C63.1469 64.6219 63.5503 64.4754 63.8667 64.195L69.8133 58.9267L75.7599 64.1948C76.2592 64.6376 76.9751 64.7465 77.5838 64.4727C78.1922 64.1987 78.5854 63.5907 78.5854 62.9232V45.8567H102.385V96.2176C102.385 97.0233 101.729 97.6789 100.924 97.6789H80.3366C80.3366 97.6662 80.3351 97.6534 80.3349 97.6407C80.3337 97.5399 80.33 97.4393 80.3214 97.3395C82.2544 97.852 84.3199 96.8585 85.0945 94.9588C85.5019 93.9595 85.496 92.8614 85.0775 91.8668C85.038 91.7732 84.9945 91.6822 84.9488 91.5927C84.9403 91.5763 84.9322 91.5597 84.9237 91.5434C84.8787 91.458 84.8308 91.3746 84.7803 91.2934C84.7705 91.2776 84.7603 91.2622 84.7504 91.2465C84.6969 91.1632 84.6415 91.0813 84.5823 91.0025C84.5813 91.001 84.58 90.9996 84.579 90.9982C84.5203 90.9203 84.4583 90.8454 84.3942 90.7722C84.3825 90.7588 84.371 90.7453 84.3592 90.7319C84.2958 90.6613 84.2299 90.5929 84.1617 90.527C84.1483 90.5141 84.1348 90.5017 84.1213 90.4891C84.0499 90.422 83.9768 90.3567 83.9006 90.2951C83.898 90.2932 83.8954 90.2912 83.8928 90.2892C83.8178 90.2288 83.74 90.1717 83.6606 90.1167C83.6463 90.1067 83.6322 90.0966 83.6176 90.0867C83.5382 90.0333 83.4568 89.9828 83.3732 89.9347C83.3663 89.9307 83.36 89.9261 83.353 89.9221C83.8275 89.5115 84.2021 88.9918 84.446 88.3937C84.8534 87.3944 84.8474 86.2963 84.4289 85.3016C84.0628 84.4313 83.4192 83.7313 82.5948 83.297C82.477 83.235 82.3555 83.1783 82.2306 83.1275L64.7557 76.002L72.89 73.4843C74.8252 72.8852 75.9152 70.8212 75.3196 68.8835C75.0974 68.1602 74.6568 67.5502 74.0876 67.1043C73.2406 66.4407 72.1086 66.1411 70.986 66.3768C70.9806 66.3781 70.9754 66.379 70.97 66.3804C70.9078 66.3944 64.6721 67.7965 58.1594 69.0664C57.8705 69.1228 57.589 69.1771 57.3115 69.2306C57.0894 69.2733 56.8704 69.3154 56.6556 69.3562C56.5938 69.368 56.5319 69.3797 56.4707 69.3914C56.0913 69.4634 55.7238 69.5324 55.3666 69.5987C55.2229 69.6254 55.0803 69.6518 54.9401 69.6776C46.7612 71.1844 44.4635 71.2114 43.8259 71.1251C43.8234 71.1248 43.8213 71.1245 43.8188 71.124C43.8091 71.1226 43.7996 71.1213 43.7907 71.1199C43.7843 71.1188 43.7783 71.1177 43.7723 71.1168C43.768 71.116 43.7634 71.1153 43.7592 71.1147C43.7194 71.1074 43.6884 71.0999 43.6645 71.0927L43.4805 71.0177L43.7098 70.4555C43.9352 69.9026 43.9318 69.2951 43.7004 68.7448C43.6425 68.6072 43.572 68.4773 43.4903 68.3563C43.2452 67.9934 42.8986 67.7108 42.4839 67.5417L36.4533 65.0828C35.9006 64.8572 35.2929 64.8608 34.7427 65.0922C34.1922 65.3236 33.7651 65.7556 33.5397 66.3084L26.1655 84.3939C25.7001 85.5351 26.2501 86.842 27.3913 87.3075L33.4221 89.7665C33.6974 89.8788 33.9823 89.9319 34.2629 89.9319C35.1449 89.9319 35.9825 89.4064 36.3355 88.5407L36.391 88.4048L37.7815 88.9716C37.7822 88.9719 37.783 88.9724 37.7839 88.9727C39.1139 89.515 40.3393 90.2887 41.3998 91.2489C41.5927 91.4235 41.7801 91.6042 41.9618 91.7908C42.1435 91.9774 42.3191 92.17 42.4888 92.3681C42.5736 92.4672 42.657 92.5678 42.7386 92.6696C44.284 94.5966 46.31 96.1083 48.5972 97.0409L50.1615 97.6787H38.7029C37.8972 97.6787 37.2416 97.0231 37.2416 96.2175V93.3765C37.2416 92.7563 36.739 92.2537 36.1188 92.2537C35.4987 92.2537 34.9961 92.7563 34.9961 93.3765V96.2175C34.9961 98.2614 36.6588 99.9243 38.7029 99.9243H55.6688L70.1327 105.822C70.6306 106.025 71.1457 106.121 71.653 106.121C73.2469 106.121 74.7609 105.171 75.399 103.606C75.6607 102.965 75.7447 102.294 75.6742 101.649C76.4266 101.757 77.2066 101.658 77.9136 101.353C78.6322 101.042 79.2278 100.548 79.6507 99.9242H100.924C102.968 99.9242 104.631 98.2614 104.631 96.2173V44.7339C104.631 44.7324 104.631 44.7312 104.631 44.7296ZM65.0492 37.2456H74.5774L76.0503 43.6111H63.5763L65.0492 37.2456ZM61.2714 43.6111H37.7629L40.2494 37.2456H62.7444L61.2714 43.6111ZM76.3401 61.7086H76.34L70.9399 56.9247C70.6188 56.6403 70.2161 56.4981 69.8136 56.4981C69.4109 56.4981 69.0081 56.6403 68.687 56.9247L63.2871 61.7086V45.8567H76.3401V61.7086ZM34.2601 87.6831L28.2487 85.2321L35.6151 67.1662L41.6265 69.6174L34.2601 87.6831ZM79.1172 94.459L77.8286 93.9335C77.8279 93.9332 77.8273 93.933 77.8267 93.9327C77.8263 93.9326 77.8258 93.9323 77.8253 93.9321C77.8252 93.9321 77.825 93.932 77.8249 93.932L64.4045 88.4599C63.8305 88.2259 63.1752 88.5014 62.9409 89.0758C62.7067 89.65 62.9824 90.3053 63.5568 90.5395L76.9774 96.0117C77.0335 96.0346 77.0877 96.0599 77.1401 96.0877C77.1548 96.0955 77.1685 96.1051 77.1829 96.1132C77.2198 96.1341 77.2568 96.155 77.2917 96.1782C77.3084 96.1894 77.3238 96.2023 77.34 96.2139C77.3709 96.2361 77.4024 96.2579 77.4316 96.2818C77.4492 96.2963 77.4652 96.3124 77.4822 96.3274C77.5084 96.3506 77.5351 96.3731 77.5596 96.3976C77.5767 96.4145 77.5919 96.4331 77.6082 96.4506C77.6308 96.4749 77.6539 96.4987 77.6751 96.5242C77.6913 96.5437 77.7054 96.5644 77.7207 96.5845C77.7399 96.6097 77.7599 96.6344 77.7776 96.6605C77.7925 96.6824 77.8052 96.7054 77.819 96.7277C77.835 96.7535 77.8519 96.7788 77.8665 96.8054C77.8797 96.8293 77.8908 96.8544 77.9029 96.8788C77.9158 96.905 77.9298 96.9308 77.9414 96.9577C77.9526 96.9835 77.9617 97.0102 77.9717 97.0365C77.9818 97.0631 77.9929 97.0892 78.0018 97.1162C78.0107 97.1434 78.0175 97.1712 78.025 97.1987C78.0325 97.2259 78.041 97.2526 78.0472 97.2801C78.0535 97.3079 78.0575 97.3361 78.0626 97.3641C78.0677 97.392 78.0735 97.4197 78.0772 97.4479C78.0809 97.4762 78.0823 97.5047 78.0846 97.5332C78.0869 97.5617 78.0902 97.5901 78.0912 97.6187C78.0921 97.6468 78.0907 97.6752 78.0904 97.7035C78.0901 97.7327 78.0906 97.7618 78.0887 97.7912C78.087 97.819 78.0829 97.8468 78.0798 97.8746C78.0766 97.9045 78.0741 97.9344 78.0692 97.9642C78.0648 97.9916 78.0578 98.0188 78.0522 98.0461C78.0457 98.0764 78.0403 98.1066 78.0322 98.1367C78.0251 98.1633 78.0156 98.1897 78.0072 98.2161C77.9976 98.2462 77.9889 98.2763 77.9777 98.306C77.9682 98.3264 77.9588 98.347 77.95 98.3677C77.948 98.3724 77.947 98.3774 77.9451 98.382C77.7697 98.7869 77.446 99.1087 77.0232 99.2913C76.5579 99.492 76.0251 99.4991 75.5613 99.3099L73.1835 98.3404C73.1725 98.3359 73.1612 98.3328 73.1502 98.3287C73.139 98.3236 73.1284 98.3178 73.117 98.3132L62.2015 93.8624C61.627 93.6283 60.972 93.9039 60.7379 94.4782C60.5037 95.0525 60.7794 95.7078 61.3536 95.942L72.2691 100.393C72.2808 100.397 72.2926 100.401 72.3044 100.405C72.315 100.41 72.3249 100.415 72.3358 100.42C73.2519 100.793 73.6934 101.843 73.3199 102.759C72.9462 103.675 71.8975 104.117 70.9809 103.743L56.3152 97.7629C56.3146 97.7626 56.314 97.7623 56.3134 97.762L49.4455 94.9615C48.2366 94.4686 47.1139 93.7844 46.1229 92.9426C45.5283 92.4375 44.9811 91.8759 44.4909 91.2647C44.0079 90.6625 43.478 90.1009 42.908 89.5847C41.6537 88.4493 40.2047 87.5345 38.6323 86.8931C38.6321 86.8931 38.632 86.893 38.6318 86.893L37.2395 86.3254L40.0126 79.5243L42.6332 73.0973L42.8266 73.1761C43.0085 73.2503 43.2681 73.3556 43.9665 73.382C44.8392 73.4215 46.2828 73.3304 48.869 72.9651C50.6282 72.7166 52.7861 72.3572 55.3052 71.8937C55.3672 71.8824 55.4288 71.871 55.4915 71.8595C55.6093 71.8377 55.7283 71.8156 55.8478 71.7935C55.9407 71.7763 56.034 71.7587 56.1282 71.7411C56.2354 71.721 56.343 71.7008 56.4515 71.6804C56.5665 71.6588 56.6829 71.6368 56.7999 71.6145C56.8936 71.5967 56.9871 71.5791 57.0817 71.5611C57.2244 71.5339 57.3695 71.5061 57.5151 71.4782C57.5901 71.4637 57.6642 71.4496 57.7398 71.4352C57.9628 71.3922 58.1887 71.3485 58.4188 71.3039C64.909 70.0415 71.1734 68.6364 71.4549 68.5731C71.483 68.5673 71.5111 68.5639 71.5392 68.5598C72.2604 68.453 72.967 68.8701 73.1738 69.5431C73.2465 69.7796 73.2549 70.0209 73.2092 70.2479C73.1086 70.7475 72.7455 71.1785 72.2266 71.339L61.0951 74.7843C60.6419 74.9247 60.3259 75.3343 60.3054 75.8082C60.2849 76.282 60.5641 76.7177 61.0033 76.8968L81.3834 85.2069C81.8272 85.3878 82.174 85.7307 82.3598 86.1726C82.5456 86.6144 82.5484 87.1022 82.3673 87.5458C82.1863 87.9897 81.8435 88.3364 81.4016 88.5223C81.1808 88.615 80.9484 88.662 80.7158 88.6634C80.7124 88.6634 80.709 88.6629 80.7056 88.6629C80.651 88.6629 80.5964 88.6608 80.5419 88.6557C80.5258 88.6542 80.5098 88.6508 80.4937 88.649C80.4521 88.6439 80.4105 88.6391 80.3692 88.6312C80.343 88.6261 80.3172 88.6184 80.2913 88.6123C80.2603 88.6049 80.2291 88.5986 80.1984 88.5895C80.1666 88.5802 80.1354 88.5677 80.1041 88.5565C80.0792 88.5476 80.0539 88.5402 80.0293 88.5303L66.6074 83.0574C66.0332 82.8232 65.378 83.0989 65.1438 83.6733C64.9096 84.2475 65.1853 84.9028 65.7597 85.137L82.0318 91.7719C82.1428 91.8171 82.2477 91.8725 82.3455 91.937C82.639 92.1305 82.8689 92.4062 83.0082 92.7376C83.1708 93.1242 83.1933 93.5459 83.075 93.9426C83.0581 93.9992 83.0383 94.0554 83.0157 94.1109C82.9924 94.1682 82.9664 94.2236 82.938 94.2771C82.8718 94.4014 82.7912 94.5139 82.7012 94.6163C82.6453 94.6799 82.5856 94.7392 82.522 94.7935C82.5118 94.8021 82.5026 94.812 82.4923 94.8202C82.0826 95.1553 81.5348 95.2994 80.9996 95.1913C80.891 95.1693 80.783 95.1381 80.6768 95.0948L79.1172 94.459Z" fill="#159822"/>
</svg>
