<svg width="187" height="130" viewBox="0 0 187 130" fill="none" xmlns="http://www.w3.org/2000/svg">
<rect x="2" y="2" width="183" height="61" rx="4" stroke="#159822" stroke-width="4"/>
<path d="M44.6582 32.3906H41.6348V43.3594H37.2051V17.7656H41.6348V28.5234H44.0781L51.6016 17.7656H57.0508L48.2617 30.0176L57.8242 43.3594H52.4805L44.6582 32.3906ZM65.8223 37.2422L69.6895 24.3398H74.2422L66.6836 46.2422C65.5234 49.4414 63.5547 51.041 60.7773 51.041C60.1562 51.041 59.4707 50.9355 58.7207 50.7246V47.4199L59.5293 47.4727C60.6074 47.4727 61.416 47.2734 61.9551 46.875C62.5059 46.4883 62.9395 45.832 63.2559 44.9062L63.8711 43.2715L57.1914 24.3398H61.7969L65.8223 37.2422ZM92.8398 43.3594H88.5684V27.7852H81.1504V43.3594H76.8789V24.3398H92.8398V43.3594ZM109.258 24.3398H113.512V43.3594H109.258V30.668L101.805 43.3594H97.5508V24.3398H101.805V37.0312L109.258 24.3398ZM133.023 27.7324H126.854V43.3594H122.582V27.7324H116.482V24.3398H133.023V27.7324ZM140.477 30.3867H144.66C146.219 30.3867 147.578 30.6562 148.738 31.1953C149.898 31.7344 150.777 32.4902 151.375 33.4629C151.984 34.4355 152.289 35.5664 152.289 36.8555C152.289 38.8125 151.598 40.3828 150.215 41.5664C148.832 42.75 146.992 43.3477 144.695 43.3594H136.205V24.3398H140.477V30.3867ZM140.477 33.8145V39.9492H144.643C145.686 39.9492 146.506 39.6914 147.104 39.1758C147.713 38.6484 148.018 37.9043 148.018 36.9434C148.018 35.9824 147.719 35.2266 147.121 34.6758C146.535 34.1133 145.738 33.8262 144.73 33.8145H140.477Z" fill="#159822"/>
<path d="M128.451 115.373H133.163V119.186H128.451V115.373Z" fill="#159822"/>
<path d="M121.532 75.6334V59.9332C115.435 55.7465 113.448 60.6808 113.218 63.6713V87.5954L107.674 83.1096C106.751 82.6112 104.487 81.9134 102.824 83.1096C101.161 84.3058 102.131 88.0938 102.824 89.8383L113.218 103.296V109.277H134.697V102.548L138.161 97.3145L143.012 90.5859V81.6144L134.697 75.6334H121.532Z" fill="white"/>
<path d="M142.235 95.8679C144.091 93.8547 145.355 91.2897 145.867 88.4975C146.379 85.7052 146.116 82.811 145.111 80.1808C144.107 77.5506 142.405 75.3026 140.222 73.7209C138.04 72.1392 135.473 71.295 132.848 71.2949H123.813V61.6174C123.813 59.6925 123.107 57.8464 121.852 56.4852C120.597 55.1241 118.895 54.3594 117.12 54.3594C115.344 54.3594 113.642 55.1241 112.387 56.4852C111.132 57.8464 110.427 59.6925 110.427 61.6174V80.0124C109.05 78.7665 107.284 78.1442 105.495 78.2753C103.706 78.4063 102.032 79.2805 100.823 80.7159C99.6136 82.1513 98.9612 84.0372 99.0018 85.981C99.0424 87.9249 99.7727 89.7769 101.041 91.1514L110.427 101.329V105.166H108.196C107.604 105.166 107.036 105.421 106.618 105.874C106.2 106.328 105.965 106.944 105.965 107.585V129.359H110.427V110.005H137.198V129.359H141.66V107.585C141.66 106.944 141.425 106.328 141.007 105.874C140.589 105.421 140.021 105.166 139.429 105.166H137.198V101.329L142.235 95.8679ZM133.39 98.6163C133.183 98.841 133.018 99.1077 132.906 99.4013C132.794 99.6948 132.736 100.009 132.736 100.327V105.166H114.889V100.327C114.889 100.009 114.831 99.6948 114.719 99.4012C114.606 99.1077 114.442 98.841 114.235 98.6163L104.195 87.7292C103.963 87.4773 103.779 87.1782 103.653 86.8491C103.527 86.5199 103.463 86.1671 103.463 85.8108C103.463 85.4545 103.527 85.1017 103.653 84.7725C103.779 84.4433 103.963 84.1442 104.195 83.8923C104.428 83.6403 104.703 83.4405 105.007 83.3041C105.31 83.1678 105.636 83.0976 105.964 83.0976C106.293 83.0975 106.618 83.1677 106.922 83.304C107.225 83.4404 107.501 83.6402 107.734 83.8921L111.08 87.5212C111.392 87.8595 111.789 88.0899 112.222 88.1833C112.655 88.2767 113.103 88.2288 113.511 88.0458C113.919 87.8627 114.267 87.5527 114.512 87.1549C114.758 86.7571 114.888 86.2895 114.889 85.811V61.6174C114.889 60.9758 115.124 60.3604 115.542 59.9067C115.96 59.453 116.528 59.1981 117.12 59.1981C117.711 59.1981 118.279 59.453 118.697 59.9067C119.115 60.3604 119.351 60.9758 119.351 61.6174V73.7142C119.351 74.3559 119.586 74.9712 120.004 75.425C120.422 75.8787 120.99 76.1336 121.582 76.1336H132.848C134.591 76.1339 136.294 76.6946 137.743 77.7446C139.192 78.7947 140.321 80.287 140.988 82.0329C141.655 83.7788 141.829 85.6999 141.49 87.5534C141.15 89.4069 140.311 91.1095 139.079 92.4461L133.39 98.6163Z" fill="#159822"/>
</svg>
