<svg width="135" height="162" viewBox="0 0 135 162" fill="none" xmlns="http://www.w3.org/2000/svg">
<circle cx="67.5" cy="67.5" r="58" stroke="#D1D1D1"/>
<circle cx="67.5" cy="154.5" r="7.5" fill="#159822"/>
<path d="M132.5 67.5C132.5 103.399 103.399 132.5 67.5 132.5C31.6015 132.5 2.5 103.399 2.5 67.5C2.5 31.6015 31.6015 2.5 67.5 2.5C103.399 2.5 132.5 31.6015 132.5 67.5ZM67.5 134.5C104.503 134.5 134.5 104.503 134.5 67.5C134.5 30.4969 104.503 0.5 67.5 0.5C30.4969 0.5 0.5 30.4969 0.5 67.5C0.5 104.503 30.4969 134.5 67.5 134.5Z" fill="#159822" stroke="#159822"/>
<path fill-rule="evenodd" clip-rule="evenodd" d="M66 148L66 134L69 134L69 148L66 148Z" fill="#159822"/>
<path d="M71.1619 57.7378C71.1619 57.3419 71.4833 57.0205 71.879 57.0205C72.2746 57.0205 72.5961 57.3419 72.5961 57.7378C72.5961 58.1337 72.2746 58.4551 71.879 58.4551C71.4833 58.4551 71.1619 58.1337 71.1619 57.7378Z" fill="#159822" stroke="#159822"/>
<path d="M41.9491 63.8026V63.3408L41.4888 63.3042C38.6174 63.0755 36.35 60.6662 36.35 57.7375V50.434C36.35 50.038 36.6711 49.7168 37.0672 49.7168H96.9533C97.3494 49.7168 97.6705 50.038 97.6705 50.434V57.7375C97.6705 60.6663 95.4031 63.0756 92.5317 63.3042L92.0714 63.3408V63.8026V69.91C92.0714 74.3883 90.8758 78.783 88.6148 82.6189C86.42 86.3423 83.2822 89.4545 79.5414 91.6185L79.5441 91.6231L79.5408 91.6189C75.9018 93.7324 71.5598 94.9722 67.0103 94.9722C62.6193 94.9722 58.3017 93.8204 54.5209 91.6423L54.5201 91.6418L54.5082 91.635L54.5048 91.6331L54.4645 91.6098L54.4634 91.6094C46.9639 87.2639 41.9491 79.1567 41.9491 69.91V63.8026ZM54.5324 91.65C54.535 91.6517 54.536 91.6524 54.5347 91.6515L54.5324 91.65ZM78.2022 90.7225L78.465 90.5809V90.2823V79.648C78.465 73.3311 73.3269 68.1927 67.0103 68.1927C60.6936 68.1927 55.5555 73.3311 55.5555 79.648V90.2823V90.5809L55.8184 90.7225C59.2409 92.566 63.0944 93.5377 67.0103 93.5377C70.9263 93.5377 74.7798 92.566 78.2022 90.7225ZM79.8994 88.7666V89.7366L80.6895 89.1738C86.8742 84.7684 90.637 77.5764 90.637 69.91V63.8238V63.3238H90.137H43.8835H43.3835V63.8238V69.91C43.3835 77.5764 47.1463 84.7684 53.331 89.1738L54.1211 89.7366V88.7666V79.648C54.1211 72.541 59.9036 66.7582 67.0103 66.7582C74.1169 66.7582 79.8994 72.541 79.8994 79.648V88.7666ZM95.7361 57.0203H96.2361V56.5203V51.6513V51.1513H95.7361H38.2844H37.7844V51.6513V57.7375C37.7844 60.0272 39.6463 61.8893 41.936 61.8893H41.9724H42.0097H42.0477H42.0864H42.1259H42.1661H42.2071H42.2489H42.2913H42.3345H42.3785H42.4232H42.4685H42.5147H42.5615H42.6091H42.6574H42.7063H42.756H42.8064H42.8576H42.9094H42.9619H43.0151H43.0689H43.1235H43.1788H43.2347H43.2913H43.3486H43.4066H43.4652H43.5245H43.5845H43.6451H43.7064H43.7683H43.8309H43.8942H43.958H44.0226H44.0877H44.1535H44.2199H44.287H44.3547H44.423H44.4919H44.5615H44.6316H44.7024H44.7738H44.8457H44.9183H44.9915H45.0653H45.1396H45.2146H45.2901H45.3663H45.443H45.5203H45.5981H45.6766H45.7556H45.8351H45.9153H45.9959H46.0772H46.159H46.2413H46.3242H46.4076H46.4916H46.5761H46.6612H46.7468H46.8329H46.9195H47.0066H47.0943H47.1825H47.2712H47.3604H47.4501H47.5404H47.6311H47.7223H47.814H47.9062H47.9989H48.0921H48.1858H48.2799H48.3745H48.4696H48.5652H48.6612H48.7577H48.8547H48.9521H49.05H49.1483H49.247H49.3463H49.4459H49.546H49.6465H49.7475H49.8489H49.9507H50.053H50.1557H50.2587H50.3622H50.4662H50.5705H50.6752H50.7803H50.8859H50.9918H51.0981H51.2048H51.3119H51.4194H51.5273H51.6355H51.7442H51.8532H51.9625H52.0722H52.1823H52.2928H52.4036H52.5148H52.6263H52.7381H52.8503H52.9629H53.0758H53.189H53.3025H53.4164H53.5306H53.6452H53.76H53.8752H53.9907H54.1065H54.2226H54.339H54.4557H54.5727H54.69H54.8076H54.9255H55.0436H55.1621H55.2808H55.3998H55.5191H55.6387H55.7585H55.8786H55.999H56.1196H56.2405H56.3616H56.4829H56.6046H56.7264H56.8485H56.9709H57.0934H57.2163H57.3393H57.4625H57.586H57.7097H57.8336H57.9578H58.0821H58.2067H58.3314H58.4564H58.5815H58.7069H58.8324H58.9581H59.084H59.2101H59.3364H59.4629H59.5895H59.7163H59.8432H59.9703H60.0976H60.2251H60.3527H60.4804H60.6083H60.7364H60.8646H60.9929H61.1213H61.2499H61.3787H61.5075H61.6365H61.7656H61.8948H62.0241H62.1536H62.2831H62.4128H62.5426H62.6724H62.8024H62.9324H63.0626H63.1928H63.3231H63.4535H63.584H63.7146H63.8452H63.9759H64.1066H64.2374H64.3683H64.4993H64.6303H64.7613H64.8924H65.0235H65.1547H65.2859H65.4172H65.5485H65.6798H65.8111H65.9425H66.0739H66.2053H66.3367H66.4681H66.5995H66.731H66.8624H66.9939H67.1253H67.2567H67.3881H67.5195H67.6509H67.7823H67.9136H68.045H68.1763H68.3075H68.4387H68.5699H68.7011H68.8322H68.9632H69.0942H69.2252H69.3561H69.4869H69.6177H69.7484H69.879H70.0096H70.1401H70.2705H70.4008H70.5311H70.6612H70.7913H70.9213H71.0512H71.181H71.3107H71.4402H71.5697H71.6991H71.8283H71.9574H72.0864H72.2153H72.3441H72.4727H72.6012H72.7295H72.8578H72.9858H73.1138H73.2416H73.3692H73.4967H73.624H73.7511H73.8781H74.005H74.1316H74.2581H74.3844H74.5106H74.6365H74.7623H74.8879H75.0133H75.1384H75.2634H75.3882H75.5128H75.6372H75.7614H75.8854H76.0091H76.1326H76.256H76.379H76.5019H76.6245H76.7469H76.8691H76.991H77.1127H77.2341H77.3553H77.4762H77.5969H77.7173H77.8374H77.9573H78.0769H78.1963H78.3154H78.4342H78.5527H78.6709H78.7889H78.9065H79.0239H79.141H79.2578H79.3742H79.4904H79.6063H79.7218H79.8371H79.952H80.0666H80.1809H80.2948H80.4084H80.5217H80.6347H80.7473H80.8596H80.9715H81.0831H81.1944H81.3053H81.4158H81.526H81.6358H81.7452H81.8543H81.963H82.0713H82.1793H82.2869H82.394H82.5008H82.6073H82.7133H82.8189H82.9241H83.0289H83.1334H83.2374H83.341H83.4441H83.5469H83.6492H83.7512H83.8527H83.9537H84.0543H84.1545H84.2543H84.3536H84.4525H84.5509H84.6489H84.7464H84.8434H84.94H85.0362H85.1318H85.227H85.3218H85.416H85.5098H85.6031H85.6959H85.7882H85.88H85.9714H86.0622H86.1525H86.2424H86.3317H86.4205H86.5088H86.5966H86.6839H86.7706H86.8568H86.9425H87.0277H87.1123H87.1964H87.28H87.363H87.4455H87.5274H87.6088H87.6896H87.7698H87.8495H87.9286H88.0072H88.0852H88.1626H88.2394H88.3157H88.3914H88.4665H88.541H88.6149H88.6882H88.7609H88.833H88.9045H88.9754H89.0457H89.1154H89.1845H89.2529H89.3207H89.3879H89.4545H89.5204H89.5857H89.6504H89.7144H89.7778H89.8405H89.9026H89.9641H90.0248H90.0849H90.1444H90.2032H90.2613H90.3187H90.3755H90.4316H90.487H90.5417H90.5958H90.6491H90.7018H90.7538H90.805H90.8556H90.9054H90.9546H91.003H91.0508H91.0978H91.144H91.1896H91.2344H91.2785H91.3219H91.3646H91.4064H91.4476H91.488H91.5277H91.5666H91.6048H91.6422H91.6788H91.7147H91.7498H91.7841H91.8177H91.8505H91.8825H91.9137H91.9442H91.9738H92.0027H92.0308H92.0581H92.0845C93.893 61.8893 95.4282 60.7165 95.998 59.1097L96.2346 58.4426H95.5268H76.7478C76.3452 58.4426 76.0306 58.1271 76.0306 57.7375C76.0306 57.3414 76.3518 57.0203 76.7478 57.0203H95.7361Z" fill="#159822" stroke="#159822"/>
<path d="M58.9899 79.6476C58.9899 75.2254 62.5883 71.627 67.0103 71.627C71.4322 71.627 75.0306 75.2254 75.0306 79.6476C75.0306 84.0697 71.4322 87.6682 67.0103 87.6682C62.5883 87.6682 58.9899 84.0697 58.9899 79.6476ZM60.4243 79.6476C60.4243 83.2796 63.3783 86.2337 67.0103 86.2337C70.6422 86.2337 73.5962 83.2796 73.5962 79.6476C73.5962 76.0155 70.6422 73.0614 67.0103 73.0614C63.3783 73.0614 60.4243 76.0155 60.4243 79.6476Z" fill="#159822" stroke="#159822"/>
<path d="M63.8586 79.6479C63.8586 77.9104 65.2729 76.4961 67.0103 76.4961C68.7476 76.4961 70.1619 77.9104 70.1619 79.6479C70.1619 81.3855 68.7476 82.7998 67.0103 82.7998C65.2729 82.7998 63.8586 81.3855 63.8586 79.6479ZM65.2931 79.6479C65.2931 80.5953 66.0629 81.3652 67.0103 81.3652C67.9576 81.3652 68.7275 80.5953 68.7275 79.6479C68.7275 78.7006 67.9576 77.9307 67.0103 77.9307C66.0629 77.9307 65.2931 78.7006 65.2931 79.6479Z" fill="#159822" stroke="#159822"/>
<path d="M106.072 94.3595C106.072 103.226 98.8846 110.413 90.0187 110.413C81.1529 110.413 73.9656 103.226 73.9656 94.3595C73.9656 85.4932 81.1529 78.3057 90.0187 78.3057C98.8846 78.3057 106.072 85.4932 106.072 94.3595Z" fill="white" stroke="#159822" stroke-width="2"/>
<path d="M97.3976 87.8831C96.856 87.3907 96.0138 87.4293 95.5189 87.9735L87.4026 96.911L83.4815 92.9247C82.9639 92.4004 82.123 92.3924 81.6001 92.9087C81.0759 93.4236 81.0679 94.2659 81.5842 94.7901L86.4925 99.7798C86.744 100.035 87.0845 100.178 87.4411 100.178C87.4491 100.178 87.4584 100.178 87.4664 100.179C87.8336 100.171 88.1796 100.014 88.4257 99.7425L97.488 89.7632C97.9817 89.2176 97.9417 88.3767 97.3976 87.8831Z" fill="#159822"/>
</svg>
