<svg width="212" height="142" viewBox="0 0 212 142" fill="none" xmlns="http://www.w3.org/2000/svg">
<path d="M21.2031 92.9395C20.6105 92.9395 20.0422 93.1749 19.6232 93.5939C19.2042 94.0129 18.9688 94.5813 18.9688 95.1739V108.58C18.9688 109.173 19.2042 109.741 19.6232 110.16C20.0422 110.579 20.6105 110.815 21.2031 110.815H83.7644C84.357 110.815 84.9253 110.579 85.3443 110.16C85.7633 109.741 85.9987 109.173 85.9987 108.58V95.1739C85.9987 94.5813 85.7633 94.0129 85.3443 93.5939C84.9253 93.1749 84.357 92.9395 83.7644 92.9395H21.2031ZM81.53 106.346H23.4374V97.4083H81.53V106.346Z" fill="#159822"/>
<path d="M99.4047 92.9395H103.873V97.4084H99.4047V92.9395Z" fill="#159822"/>
<path d="M108.342 92.9395H112.81V97.4084H108.342V92.9395Z" fill="#159822"/>
<path d="M99.4047 106.346H103.873V110.815H99.4047V106.346Z" fill="#159822"/>
<path d="M108.342 106.346H112.81V110.815H108.342V106.346Z" fill="#159822"/>
<path d="M68.1239 84H16.7342C14.9565 84 13.2516 84.7062 11.9945 85.9633C10.7375 87.2205 10.0313 88.9255 10.0312 90.7033V113.048C10.0312 114.825 10.7375 116.53 11.9945 117.787C13.2516 119.045 14.9565 119.751 16.7342 119.751H23.9266L25.7386 126.995C25.8592 127.478 26.138 127.908 26.5307 128.215C26.9235 128.522 27.4075 128.688 27.9059 128.688H36.8432C37.3416 128.688 37.8257 128.522 38.2184 128.215C38.6111 127.908 38.8899 127.478 39.0105 126.995L40.8226 119.751H113.3L115.112 126.995C115.232 127.478 115.511 127.908 115.904 128.215C116.297 128.522 116.781 128.688 117.279 128.688H126.216C126.715 128.688 127.199 128.522 127.592 128.215C127.984 127.908 128.263 127.478 128.384 126.995L130.196 119.751H137.388C139.166 119.751 140.871 119.045 142.128 117.787C143.385 116.53 144.091 114.825 144.091 113.048V90.7033C144.091 88.9255 143.385 87.2205 142.128 85.9633C140.871 84.7062 139.166 84 137.388 84H68.1239ZM35.0982 124.22H29.6509L28.5337 119.751H36.2154L35.0982 124.22ZM124.471 124.22H119.024L117.907 119.751H125.589L124.471 124.22ZM139.622 90.7033V113.048C139.622 113.64 139.387 114.208 138.968 114.627C138.549 115.047 137.981 115.282 137.388 115.282H16.7342C16.1417 115.282 15.5734 115.047 15.1543 114.627C14.7353 114.208 14.4999 113.64 14.4999 113.048V90.7033C14.4999 90.1107 14.7353 89.5423 15.1543 89.1233C15.5734 88.7043 16.1417 88.4688 16.7342 88.4688H137.388C137.981 88.4688 138.549 88.7043 138.968 89.1233C139.387 89.5423 139.622 90.1107 139.622 90.7033Z" fill="#159822"/>
<path d="M68.2834 3.06939C46.6053 2.98018 3.08857 2.85529 2.44626 3.06939C-0.551203 3.71177 3.33836 8.33276 5.65783 10.563L11.0104 12.9716V21.5358C11.9025 25.6395 13.8473 34.3821 14.4896 36.5231C15.1319 38.6642 19.0394 40.0915 20.9128 40.5376H56.24V63.2862L57.8458 65.6949L61.5926 67.033L65.3394 63.2862H84.8765V70.2446L87.0175 72.9209H91.8349L93.9759 70.2446L95.0464 48.0312L92.9054 44.0168L89.9615 42.411L84.8765 44.0168V53.3839H65.3394V42.411L68.2834 40.5376C70.4244 38.7534 74.8136 32.4551 75.2418 21.5358C75.67 10.6165 70.7813 4.67515 68.2834 3.06939Z" fill="white"/>
<path d="M91.107 39.9873H88.1913C85.4675 39.9873 83.2523 42.2026 83.2523 44.9265V51.1838H67.258V41.2365C73.0895 39.3539 76.7858 31.5564 76.7858 20.7934C76.7858 9.22107 72.5169 1.06686 65.9097 0.019194C65.8265 0.0063981 65.7434 0 65.6586 0H1.68162C0.912298 0 0.253335 0.548626 0.110986 1.30519H0.109387C0.0773982 1.47633 -0.645542 5.54064 2.09747 8.84519C3.91762 11.0381 6.76779 12.3145 10.5616 12.676C9.99063 15.2192 9.67874 17.9703 9.67874 20.7934C9.67874 32.4537 14.597 41.5868 20.8747 41.5868H54.4626V62.3274C54.4626 65.0018 56.6378 67.1787 59.3137 67.1787H62.4086C64.5006 67.1787 66.2712 65.8399 66.9509 63.9797H83.2539V68.6374C83.2539 71.3614 85.4691 73.5767 88.1929 73.5767H91.1086C93.8325 73.5767 96.0477 71.3614 96.0477 68.6374V44.9265C96.0461 42.2026 93.8309 39.9873 91.107 39.9873ZM65.5226 3.19899C69.3565 3.89636 73.1807 9.08992 73.5486 19.1939H40.7284L34.7993 13.2646C34.4986 12.9639 34.0924 12.7959 33.6685 12.7959H30.4697H29.9115H23.5378H21.8264C21.812 12.7735 21.7944 12.7512 21.78 12.7288C21.6168 12.4664 21.4345 12.2025 21.2362 11.937C21.129 11.7931 21.0091 11.6491 20.8923 11.5052C20.8395 11.4396 20.7899 11.374 20.7356 11.3084C20.6716 11.2332 20.606 11.1581 20.5388 11.0829C20.4685 11.0029 20.4109 10.9245 20.3389 10.8446C20.3117 10.8142 20.2765 10.7934 20.2461 10.7646C20.067 10.571 19.8799 10.3775 19.6831 10.1824C19.5568 10.0576 19.4288 9.93445 19.2977 9.81129C18.9794 9.51378 18.6435 9.21468 18.2852 8.91557C17.9974 8.67405 17.6967 8.43892 17.3928 8.2038C17.2536 8.09663 17.1161 7.98947 16.9721 7.8823C14.5522 6.07327 11.75 4.46898 9.22131 3.19899H65.5226ZM22.4725 18.6597C22.4725 22.0026 21.5129 24.2115 20.8731 25.1744C20.2333 24.2099 19.2737 22.0026 19.2737 18.6597C19.2737 17.3705 19.4128 16.278 19.6096 15.3759C19.616 15.3855 19.6288 15.3887 19.6368 15.3967C19.7711 15.5615 19.9343 15.691 20.1198 15.7902C20.1598 15.811 20.1982 15.827 20.2413 15.8446C20.4397 15.9309 20.6492 15.9917 20.8747 15.9917H22.2534C22.399 16.8459 22.4725 17.7384 22.4725 18.6597ZM4.57978 6.82983C3.80886 5.91172 3.46658 4.88165 3.31463 3.99393C5.72657 5.0304 8.92701 6.56272 11.878 8.33816C11.7212 8.73163 11.5773 9.1395 11.4365 9.55217C8.23126 9.34744 5.92969 8.43412 4.57978 6.82983ZM12.876 20.7934C12.876 16.9194 13.487 13.2038 14.613 10.1232C14.645 10.1456 14.6769 10.168 14.7089 10.1904C15.6958 10.9021 16.5211 11.5963 17.2296 12.2745C16.6682 13.6517 16.0732 15.7886 16.0732 18.6597C16.0732 24.0564 18.3156 28.7893 20.8715 28.7893C23.4274 28.7893 25.6698 24.0564 25.6698 18.6597C25.6698 17.7464 25.593 16.8603 25.4715 15.9933H28.5424C28.7583 17.5736 28.8686 19.1827 28.8686 20.7918C28.8686 30.7007 24.5694 38.3862 20.8715 38.3862C17.0921 38.3878 12.876 31.1613 12.876 20.7934ZM26.7478 38.3878C26.7926 38.335 26.8326 38.2679 26.8774 38.2135C27.1828 37.844 27.4787 37.4473 27.7634 37.0267C27.8114 36.9563 27.861 36.8955 27.909 36.8235C28.2369 36.3229 28.5472 35.7839 28.8446 35.2192C28.9246 35.0689 28.9966 34.9073 29.0734 34.7522C29.2877 34.3187 29.4924 33.8725 29.6875 33.4086C29.7707 33.2103 29.8523 33.0103 29.9323 32.8072C30.1226 32.321 30.2985 31.8187 30.4665 31.3037C30.5208 31.1341 30.5816 30.971 30.6328 30.7998C30.8423 30.112 31.0311 29.4051 31.199 28.6757C31.2326 28.5302 31.2566 28.3798 31.2886 28.2342C31.4149 27.6408 31.5285 27.0362 31.626 26.4188C31.6644 26.1709 31.698 25.9214 31.7332 25.6719C31.8084 25.1136 31.8708 24.5474 31.9203 23.9748C31.9411 23.7317 31.9667 23.4902 31.9827 23.2438C32.0371 22.4377 32.0723 21.6219 32.0723 20.7934V15.9949H33.0096L38.9386 21.9242C39.2393 22.225 39.6456 22.3929 40.0694 22.3929H73.5518C73.1839 32.4969 69.3597 37.6904 65.5259 38.3878H54.4642H26.7478V38.3878ZM62.407 63.9797H59.3121C58.402 63.9797 57.6599 63.2391 57.6599 62.3274V41.5868H64.0576V51.1838V62.3274C64.0576 63.2375 63.317 63.9797 62.407 63.9797ZM67.2564 60.7807V54.3828H83.2507V60.7807H67.2564ZM92.8472 68.6358C92.8472 69.5955 92.0667 70.3761 91.107 70.3761H88.1913C87.2316 70.3761 86.4511 69.5955 86.4511 68.6358V63.9781V51.1822V44.9249C86.4511 43.9653 87.2316 43.1847 88.1913 43.1847H91.107C92.0667 43.1847 92.8472 43.9653 92.8472 44.9249V68.6358Z" fill="#159822"/>
<path d="M51.2627 33.5874C52.146 33.5874 52.8621 32.8713 52.8621 31.988C52.8621 31.1047 52.146 30.3887 51.2627 30.3887C50.3794 30.3887 49.6633 31.1047 49.6633 31.988C49.6633 32.8713 50.3794 33.5874 51.2627 33.5874Z" fill="#159822"/>
<path d="M44.865 33.5874C45.7483 33.5874 46.4644 32.8713 46.4644 31.988C46.4644 31.1047 45.7483 30.3887 44.865 30.3887C43.9817 30.3887 43.2656 31.1047 43.2656 31.988C43.2656 32.8713 43.9817 33.5874 44.865 33.5874Z" fill="#159822"/>
<path d="M38.4673 33.5874C39.3506 33.5874 40.0667 32.8713 40.0667 31.988C40.0667 31.1047 39.3506 30.3887 38.4673 30.3887C37.584 30.3887 36.8679 31.1047 36.8679 31.988C36.8679 32.8713 37.584 33.5874 38.4673 33.5874Z" fill="#159822"/>
<path d="M104.681 3.06939C83.0031 2.98018 39.4863 2.85529 38.844 3.06939C35.8466 3.71177 39.7361 8.33276 42.0556 10.563L47.4082 12.9716V21.5358C48.3003 25.6395 50.2451 34.3821 50.8874 36.5231C51.5297 38.6642 55.4371 40.0915 57.3105 40.5376H92.6378V63.2862L94.2436 65.6949L97.9904 67.033L101.737 63.2862H121.274V70.2446L123.415 72.9209H128.233L130.374 70.2446L131.444 48.0312L129.303 44.0168L126.359 42.411L121.274 44.0168V53.3839H101.737V42.411L104.681 40.5376C106.822 38.7534 111.211 32.4551 111.64 21.5358C112.068 10.6165 107.179 4.67515 104.681 3.06939Z" fill="white"/>
<path d="M127.619 39.9873H124.703C121.979 39.9873 119.764 42.2026 119.764 44.9265V51.1838H103.769V41.2365C109.601 39.3539 113.297 31.5564 113.297 20.7934C113.297 9.22107 109.028 1.06686 102.421 0.019194C102.338 0.0063981 102.255 0 102.17 0H38.1931C37.4238 0 36.7648 0.548626 36.6225 1.30519H36.6209C36.5889 1.47633 35.8659 5.54064 38.6089 8.84519C40.4291 11.0381 43.2793 12.3145 47.0731 12.676C46.5021 15.2192 46.1902 17.9703 46.1902 20.7934C46.1902 32.4537 51.1084 41.5868 57.3862 41.5868H90.9741V62.3274C90.9741 65.0018 93.1493 67.1787 95.8252 67.1787H98.92C101.012 67.1787 102.783 65.8399 103.462 63.9797H119.765V68.6374C119.765 71.3614 121.981 73.5767 124.704 73.5767H127.62C130.344 73.5767 132.559 71.3614 132.559 68.6374V44.9265C132.558 42.2026 130.342 39.9873 127.619 39.9873ZM102.034 3.19899C105.868 3.89636 109.692 9.08992 110.06 19.1939H77.2398L71.3108 13.2646C71.0101 12.9639 70.6038 12.7959 70.18 12.7959H66.9811H66.4229H60.0492H58.3378C58.3235 12.7735 58.3059 12.7512 58.2915 12.7288C58.1283 12.4664 57.946 12.2025 57.7477 11.937C57.6405 11.7931 57.5205 11.6491 57.4038 11.5052C57.351 11.4396 57.3014 11.374 57.247 11.3084C57.1831 11.2332 57.1175 11.1581 57.0503 11.0829C56.9799 11.0029 56.9224 10.9245 56.8504 10.8446C56.8232 10.8142 56.788 10.7934 56.7576 10.7646C56.5785 10.571 56.3913 10.3775 56.1946 10.1824C56.0683 10.0576 55.9403 9.93445 55.8092 9.81129C55.4909 9.51378 55.155 9.21468 54.7967 8.91557C54.5088 8.67405 54.2081 8.43892 53.9042 8.2038C53.7651 8.09663 53.6275 7.98947 53.4836 7.8823C51.0637 6.07327 48.2615 4.46898 45.7328 3.19899H102.034ZM58.984 18.6597C58.984 22.0026 58.0244 24.2115 57.3846 25.1744C56.7448 24.2099 55.7852 22.0026 55.7852 18.6597C55.7852 17.3705 55.9243 16.278 56.121 15.3759C56.1274 15.3855 56.1402 15.3887 56.1482 15.3967C56.2826 15.5615 56.4457 15.691 56.6313 15.7902C56.6712 15.811 56.7096 15.827 56.7528 15.8446C56.9511 15.9309 57.1607 15.9917 57.3862 15.9917H58.7649C58.9104 16.8459 58.984 17.7384 58.984 18.6597ZM41.0913 6.82983C40.3203 5.91172 39.9781 4.88165 39.8261 3.99393C42.238 5.0304 45.4385 6.56272 48.3894 8.33816C48.2327 8.73163 48.0887 9.1395 47.948 9.55217C44.7427 9.34744 42.4412 8.43412 41.0913 6.82983ZM49.3875 20.7934C49.3875 16.9194 49.9984 13.2038 51.1244 10.1232C51.1564 10.1456 51.1884 10.168 51.2204 10.1904C52.2073 10.9021 53.0326 11.5963 53.7411 12.2745C53.1797 13.6517 52.5847 15.7886 52.5847 18.6597C52.5847 24.0564 54.8271 28.7893 57.383 28.7893C59.9389 28.7893 62.1813 24.0564 62.1813 18.6597C62.1813 17.7464 62.1045 16.8603 61.9829 15.9933H65.0538C65.2698 17.5736 65.3801 19.1827 65.3801 20.7918C65.3801 30.7007 61.0809 38.3862 57.383 38.3862C53.6036 38.3878 49.3875 31.1613 49.3875 20.7934ZM63.2593 38.3878C63.3041 38.335 63.344 38.2679 63.3888 38.2135C63.6943 37.844 63.9902 37.4473 64.2749 37.0267C64.3229 36.9563 64.3725 36.8955 64.4205 36.8235C64.7483 36.3229 65.0586 35.7839 65.3561 35.2192C65.4361 35.0689 65.5081 34.9073 65.5848 34.7522C65.7992 34.3187 66.0039 33.8725 66.199 33.4086C66.2822 33.2103 66.3638 33.0103 66.4437 32.8072C66.6341 32.321 66.81 31.8187 66.9779 31.3037C67.0323 31.1341 67.0931 30.971 67.1443 30.7998C67.3538 30.112 67.5425 29.4051 67.7105 28.6757C67.7441 28.5302 67.7681 28.3798 67.8 28.2342C67.9264 27.6408 68.04 27.0362 68.1375 26.4188C68.1759 26.1709 68.2095 25.9214 68.2447 25.6719C68.3199 25.1136 68.3822 24.5474 68.4318 23.9748C68.4526 23.7317 68.4782 23.4902 68.4942 23.2438C68.5486 22.4377 68.5838 21.6219 68.5838 20.7934V15.9949H69.521L75.4501 21.9242C75.7508 22.225 76.157 22.3929 76.5809 22.3929H110.063C109.695 32.4969 105.871 37.6904 102.037 38.3878H90.9757H63.2593V38.3878ZM98.9184 63.9797H95.8236C94.9135 63.9797 94.1714 63.2391 94.1714 62.3274V41.5868H100.569V51.1838V62.3274C100.569 63.2375 99.8285 63.9797 98.9184 63.9797ZM103.768 60.7807V54.3828H119.762V60.7807H103.768ZM129.359 68.6358C129.359 69.5955 128.578 70.3761 127.619 70.3761H124.703C123.743 70.3761 122.963 69.5955 122.963 68.6358V63.9781V51.1822V44.9249C122.963 43.9653 123.743 43.1847 124.703 43.1847H127.619C128.578 43.1847 129.359 43.9653 129.359 44.9249V68.6358Z" fill="#159822"/>
<path d="M87.7742 33.5874C88.6576 33.5874 89.3737 32.8713 89.3737 31.988C89.3737 31.1047 88.6576 30.3887 87.7742 30.3887C86.8908 30.3887 86.1747 31.1047 86.1747 31.988C86.1747 32.8713 86.8908 33.5874 87.7742 33.5874Z" fill="#159822"/>
<path d="M81.3765 33.5874C82.2598 33.5874 82.9759 32.8713 82.9759 31.988C82.9759 31.1047 82.2598 30.3887 81.3765 30.3887C80.4931 30.3887 79.777 31.1047 79.777 31.988C79.777 32.8713 80.4931 33.5874 81.3765 33.5874Z" fill="#159822"/>
<path d="M74.9789 33.5874C75.8622 33.5874 76.5782 32.8713 76.5782 31.988C76.5782 31.1047 75.8622 30.3887 74.9789 30.3887C74.0955 30.3887 73.3795 31.1047 73.3795 31.988C73.3795 32.8713 74.0955 33.5874 74.9789 33.5874Z" fill="#159822"/>
<path d="M141.079 3.06939C119.401 2.98018 75.8841 2.85529 75.2418 3.06939C72.2443 3.71177 76.1339 8.33276 78.4534 10.563L83.806 12.9716V21.5358C84.6981 25.6395 86.6429 34.3821 87.2852 36.5231C87.9275 38.6642 91.8349 40.0915 93.7083 40.5376H129.036V63.2862L130.641 65.6949L134.388 67.033L138.135 63.2862H157.672V70.2446L159.813 72.9209H164.63L166.771 70.2446L167.842 48.0312L165.701 44.0168L162.757 42.411L157.672 44.0168V53.3839H138.135V42.411L141.079 40.5376C143.22 38.7534 147.609 32.4551 148.037 21.5358C148.466 10.6165 143.577 4.67515 141.079 3.06939Z" fill="white"/>
<path d="M164.13 39.9873H161.214C158.491 39.9873 156.275 42.2026 156.275 44.9265V51.1838H140.281V41.2365C146.113 39.3539 149.809 31.5564 149.809 20.7934C149.809 9.22107 145.54 1.06686 138.933 0.019194C138.85 0.0063981 138.766 0 138.682 0H74.7046C73.9353 0 73.2763 0.548626 73.134 1.30519H73.1324C73.1004 1.47633 72.3775 5.54064 75.1205 8.84519C76.9406 11.0381 79.7908 12.3145 83.5846 12.676C83.0136 15.2192 82.7018 17.9703 82.7018 20.7934C82.7018 32.4537 87.62 41.5868 93.8977 41.5868H127.486V62.3274C127.486 65.0018 129.661 67.1787 132.337 67.1787H135.432C137.524 67.1787 139.294 65.8399 139.974 63.9797H156.277V68.6374C156.277 71.3614 158.492 73.5767 161.216 73.5767H164.132C166.856 73.5767 169.071 71.3614 169.071 68.6374V44.9265C169.069 42.2026 166.854 39.9873 164.13 39.9873ZM138.546 3.19899C142.38 3.89636 146.204 9.08992 146.572 19.1939H113.751L107.822 13.2646C107.522 12.9639 107.115 12.7959 106.692 12.7959H103.493H102.934H96.5608H94.8494C94.835 12.7735 94.8174 12.7512 94.803 12.7288C94.6399 12.4664 94.4575 12.2025 94.2592 11.937C94.152 11.7931 94.0321 11.6491 93.9153 11.5052C93.8626 11.4396 93.813 11.374 93.7586 11.3084C93.6946 11.2332 93.629 11.1581 93.5619 11.0829C93.4915 11.0029 93.4339 10.9245 93.3619 10.8446C93.3347 10.8142 93.2996 10.7934 93.2692 10.7646C93.09 10.571 92.9029 10.3775 92.7062 10.1824C92.5798 10.0576 92.4519 9.93445 92.3207 9.81129C92.0024 9.51378 91.6665 9.21468 91.3083 8.91557C91.0204 8.67405 90.7197 8.43892 90.4158 8.2038C90.2766 8.09663 90.1391 7.98947 89.9951 7.8823C87.5752 6.07327 84.773 4.46898 82.2443 3.19899H138.546ZM95.4956 18.6597C95.4956 22.0026 94.5359 24.2115 93.8961 25.1744C93.2564 24.2099 92.2967 22.0026 92.2967 18.6597C92.2967 17.3705 92.4359 16.278 92.6326 15.3759C92.639 15.3855 92.6518 15.3887 92.6598 15.3967C92.7941 15.5615 92.9573 15.691 93.1428 15.7902C93.1828 15.811 93.2212 15.827 93.2644 15.8446C93.4627 15.9309 93.6722 15.9917 93.8977 15.9917H95.2764C95.422 16.8459 95.4956 17.7384 95.4956 18.6597ZM77.6028 6.82983C76.8319 5.91172 76.4896 4.88165 76.3376 3.99393C78.7496 5.0304 81.95 6.56272 84.901 8.33816C84.7442 8.73163 84.6003 9.1395 84.4595 9.55217C81.2543 9.34744 78.9527 8.43412 77.6028 6.82983ZM85.899 20.7934C85.899 16.9194 86.51 13.2038 87.636 10.1232C87.668 10.1456 87.7 10.168 87.732 10.1904C88.7188 10.9021 89.5441 11.5963 90.2526 12.2745C89.6913 13.6517 89.0963 15.7886 89.0963 18.6597C89.0963 24.0564 91.3387 28.7893 93.8945 28.7893C96.4504 28.7893 98.6928 24.0564 98.6928 18.6597C98.6928 17.7464 98.616 16.8603 98.4945 15.9933H101.565C101.781 17.5736 101.892 19.1827 101.892 20.7918C101.892 30.7007 97.5924 38.3862 93.8945 38.3862C90.1151 38.3878 85.899 31.1613 85.899 20.7934ZM99.7708 38.3878C99.8156 38.335 99.8556 38.2679 99.9004 38.2135C100.206 37.844 100.502 37.4473 100.786 37.0267C100.834 36.9563 100.884 36.8955 100.932 36.8235C101.26 36.3229 101.57 35.7839 101.868 35.2192C101.948 35.0689 102.02 34.9073 102.096 34.7522C102.311 34.3187 102.515 33.8725 102.711 33.4086C102.794 33.2103 102.875 33.0103 102.955 32.8072C103.146 32.321 103.322 31.8187 103.489 31.3037C103.544 31.1341 103.605 30.971 103.656 30.7998C103.865 30.112 104.054 29.4051 104.222 28.6757C104.256 28.5302 104.28 28.3798 104.312 28.2342C104.438 27.6408 104.552 27.0362 104.649 26.4188C104.687 26.1709 104.721 25.9214 104.756 25.6719C104.831 25.1136 104.894 24.5474 104.943 23.9748C104.964 23.7317 104.99 23.4902 105.006 23.2438C105.06 22.4377 105.095 21.6219 105.095 20.7934V15.9949H106.033L111.962 21.9242C112.262 22.225 112.669 22.3929 113.092 22.3929H146.575C146.207 32.4969 142.383 37.6904 138.549 38.3878H127.487H99.7708V38.3878ZM135.43 63.9797H132.335C131.425 63.9797 130.683 63.2391 130.683 62.3274V41.5868H137.081V51.1838V62.3274C137.081 63.2375 136.34 63.9797 135.43 63.9797ZM140.279 60.7807V54.3828H156.274V60.7807H140.279ZM165.87 68.6358C165.87 69.5955 165.09 70.3761 164.13 70.3761H161.214C160.255 70.3761 159.474 69.5955 159.474 68.6358V63.9781V51.1822V44.9249C159.474 43.9653 160.255 43.1847 161.214 43.1847H164.13C165.09 43.1847 165.87 43.9653 165.87 44.9249V68.6358Z" fill="#159822"/>
<path d="M124.286 33.5874C125.169 33.5874 125.885 32.8713 125.885 31.988C125.885 31.1047 125.169 30.3887 124.286 30.3887C123.402 30.3887 122.686 31.1047 122.686 31.988C122.686 32.8713 123.402 33.5874 124.286 33.5874Z" fill="#159822"/>
<path d="M117.888 33.5874C118.771 33.5874 119.487 32.8713 119.487 31.988C119.487 31.1047 118.771 30.3887 117.888 30.3887C117.005 30.3887 116.289 31.1047 116.289 31.988C116.289 32.8713 117.005 33.5874 117.888 33.5874Z" fill="#159822"/>
<path d="M111.49 33.5874C112.374 33.5874 113.09 32.8713 113.09 31.988C113.09 31.1047 112.374 30.3887 111.49 30.3887C110.607 30.3887 109.891 31.1047 109.891 31.988C109.891 32.8713 110.607 33.5874 111.49 33.5874Z" fill="#159822"/>
<path d="M177.477 3.06939C155.799 2.98018 112.282 2.85529 111.639 3.06939C108.642 3.71177 112.532 8.33276 114.851 10.563L120.204 12.9716V21.5358C121.096 25.6395 123.041 34.3821 123.683 36.5231C124.325 38.6642 128.233 40.0915 130.106 40.5376H165.433V63.2862L167.039 65.6949L170.786 67.033L174.533 63.2862H194.07V70.2446L196.211 72.9209H201.028L203.169 70.2446L204.24 48.0312L202.099 44.0168L199.155 42.411L194.07 44.0168V53.3839H174.533V42.411L177.477 40.5376C179.618 38.7534 184.007 32.4551 184.435 21.5358C184.863 10.6165 179.975 4.67515 177.477 3.06939Z" fill="white"/>
<path d="M200.641 39.9873H197.726C195.002 39.9873 192.787 42.2026 192.787 44.9265V51.1838H176.792V41.2365C182.624 39.3539 186.32 31.5564 186.32 20.7934C186.32 9.22107 182.051 1.06686 175.444 0.019194C175.361 0.0063981 175.278 0 175.193 0H111.216C110.447 0 109.788 0.548626 109.645 1.30519H109.644C109.612 1.47633 108.889 5.54064 111.632 8.84519C113.452 11.0381 116.302 12.3145 120.096 12.676C119.525 15.2192 119.213 17.9703 119.213 20.7934C119.213 32.4537 124.131 41.5868 130.409 41.5868H163.997V62.3274C163.997 65.0018 166.172 67.1787 168.848 67.1787H171.943C174.035 67.1787 175.806 65.8399 176.485 63.9797H192.788V68.6374C192.788 71.3614 195.003 73.5767 197.727 73.5767H200.643C203.367 73.5767 205.582 71.3614 205.582 68.6374V44.9265C205.58 42.2026 203.365 39.9873 200.641 39.9873ZM175.057 3.19899C178.891 3.89636 182.715 9.08992 183.083 19.1939H150.263L144.334 13.2646C144.033 12.9639 143.627 12.7959 143.203 12.7959H140.004H139.446H133.072H131.361C131.346 12.7735 131.329 12.7512 131.314 12.7288C131.151 12.4664 130.969 12.2025 130.771 11.937C130.663 11.7931 130.543 11.6491 130.427 11.5052C130.374 11.4396 130.324 11.374 130.27 11.3084C130.206 11.2332 130.14 11.1581 130.073 11.0829C130.003 11.0029 129.945 10.9245 129.873 10.8446C129.846 10.8142 129.811 10.7934 129.781 10.7646C129.601 10.571 129.414 10.3775 129.218 10.1824C129.091 10.0576 128.963 9.93445 128.832 9.81129C128.514 9.51378 128.178 9.21468 127.82 8.91557C127.532 8.67405 127.231 8.43892 126.927 8.2038C126.788 8.09663 126.65 7.98947 126.507 7.8823C124.087 6.07327 121.284 4.46898 118.756 3.19899H175.057ZM132.007 18.6597C132.007 22.0026 131.047 24.2115 130.408 25.1744C129.768 24.2099 128.808 22.0026 128.808 18.6597C128.808 17.3705 128.947 16.278 129.144 15.3759C129.15 15.3855 129.163 15.3887 129.171 15.3967C129.306 15.5615 129.469 15.691 129.654 15.7902C129.694 15.811 129.733 15.827 129.776 15.8446C129.974 15.9309 130.184 15.9917 130.409 15.9917H131.788C131.933 16.8459 132.007 17.7384 132.007 18.6597ZM114.114 6.82983C113.343 5.91172 113.001 4.88165 112.849 3.99393C115.261 5.0304 118.461 6.56272 121.412 8.33816C121.256 8.73163 121.112 9.1395 120.971 9.55217C117.766 9.34744 115.464 8.43412 114.114 6.82983ZM122.41 20.7934C122.41 16.9194 123.021 13.2038 124.147 10.1232C124.179 10.1456 124.211 10.168 124.243 10.1904C125.23 10.9021 126.056 11.5963 126.764 12.2745C126.203 13.6517 125.608 15.7886 125.608 18.6597C125.608 24.0564 127.85 28.7893 130.406 28.7893C132.962 28.7893 135.204 24.0564 135.204 18.6597C135.204 17.7464 135.127 16.8603 135.006 15.9933H138.077C138.293 17.5736 138.403 19.1827 138.403 20.7918C138.403 30.7007 134.104 38.3862 130.406 38.3862C126.627 38.3878 122.41 31.1613 122.41 20.7934ZM136.282 38.3878C136.327 38.335 136.367 38.2679 136.412 38.2135C136.717 37.844 137.013 37.4473 137.298 37.0267C137.346 36.9563 137.395 36.8955 137.443 36.8235C137.771 36.3229 138.082 35.7839 138.379 35.2192C138.459 35.0689 138.531 34.9073 138.608 34.7522C138.822 34.3187 139.027 33.8725 139.222 33.4086C139.305 33.2103 139.387 33.0103 139.467 32.8072C139.657 32.321 139.833 31.8187 140.001 31.3037C140.055 31.1341 140.116 30.971 140.167 30.7998C140.377 30.112 140.565 29.4051 140.733 28.6757C140.767 28.5302 140.791 28.3798 140.823 28.2342C140.949 27.6408 141.063 27.0362 141.16 26.4188C141.199 26.1709 141.232 25.9214 141.268 25.6719C141.343 25.1136 141.405 24.5474 141.455 23.9748C141.476 23.7317 141.501 23.4902 141.517 23.2438C141.572 22.4377 141.607 21.6219 141.607 20.7934V15.9949H142.544L148.473 21.9242C148.774 22.225 149.18 22.3929 149.604 22.3929H183.086C182.718 32.4969 178.894 37.6904 175.06 38.3878H163.999H136.282V38.3878ZM171.941 63.9797H168.847C167.936 63.9797 167.194 63.2391 167.194 62.3274V41.5868H173.592V51.1838V62.3274C173.592 63.2375 172.851 63.9797 171.941 63.9797ZM176.791 60.7807V54.3828H192.785V60.7807H176.791ZM202.382 68.6358C202.382 69.5955 201.601 70.3761 200.641 70.3761H197.726C196.766 70.3761 195.986 69.5955 195.986 68.6358V63.9781V51.1822V44.9249C195.986 43.9653 196.766 43.1847 197.726 43.1847H200.641C201.601 43.1847 202.382 43.9653 202.382 44.9249V68.6358Z" fill="#159822"/>
<path d="M160.797 33.5874C161.681 33.5874 162.397 32.8713 162.397 31.988C162.397 31.1047 161.681 30.3887 160.797 30.3887C159.914 30.3887 159.198 31.1047 159.198 31.988C159.198 32.8713 159.914 33.5874 160.797 33.5874Z" fill="#159822"/>
<path d="M154.399 33.5874C155.283 33.5874 155.999 32.8713 155.999 31.988C155.999 31.1047 155.283 30.3887 154.399 30.3887C153.516 30.3887 152.8 31.1047 152.8 31.988C152.8 32.8713 153.516 33.5874 154.399 33.5874Z" fill="#159822"/>
<path d="M148.002 33.5874C148.885 33.5874 149.601 32.8713 149.601 31.988C149.601 31.1047 148.885 30.3887 148.002 30.3887C147.119 30.3887 146.402 31.1047 146.402 31.988C146.402 32.8713 147.119 33.5874 148.002 33.5874Z" fill="#159822"/>
<path d="M185 105.5H190V110.5V126.5C190 129.5 190 130.5 188 133.5C186.4 135.9 185.333 136.167 185 136H170L146 133.5V130.5V127.5L144.5 126.5L144 123.5V118.5L141.5 117V112V108.5V106.5L140 101L144.5 98H168.5L164.5 89V80L170 74.5H176.5L178 87L185 105.5Z" fill="white"/>
<path d="M139 113.25C139 111.447 139.717 109.767 140.953 108.528C139.552 106.995 138.838 104.94 139.033 102.801C139.384 98.9879 142.819 95.9999 146.857 95.9999H165.388C164.47 93.2129 163 88.104 163 84C163 77.493 168.529 72 172 72C175.114 72 177.343 73.755 177.436 73.827C177.793 74.112 178 74.544 178 75V85.1729L186.643 103.89L187 104.073V103.5C187 102.672 187.672 102 188.5 102H203.5C207.637 102 211 105.363 211 109.5V133.5C211 137.637 207.637 141 203.5 141H194.5C191.257 141 188.485 138.93 187.441 136.041C184.945 137.325 181.585 138 179.5 138H151.963C148.696 138 145.837 135.798 145.165 132.762C144.82 131.196 145.021 129.621 145.705 128.253C143.491 127.14 142 124.851 142 122.25C142 121.188 142.243 120.171 142.702 119.253C140.488 118.137 139 115.851 139 113.25ZM145.327 116.952C145.906 117.021 146.395 117.414 146.581 117.969C146.764 118.524 146.611 119.133 146.185 119.535C145.423 120.252 145 121.218 145 122.25C145 124.143 146.431 125.733 148.324 125.952C148.903 126.021 149.392 126.414 149.578 126.969C149.761 127.524 149.608 128.133 149.182 128.535C148.195 129.465 147.799 130.77 148.096 132.114C148.465 133.788 150.091 135 151.963 135H179.5C181.936 135 186.022 133.857 187.438 132.438C187.867 132.012 188.515 131.886 189.073 132.114C189.634 132.345 190 132.894 190 133.5C190 135.981 192.019 138 194.5 138H203.5C205.981 138 208 135.981 208 133.5V109.5C208 107.019 205.981 105 203.5 105H190V106.5C190 107.019 189.73 107.502 189.286 107.778C188.848 108.042 188.296 108.069 187.828 107.841L184.828 106.341C184.525 106.191 184.282 105.939 184.138 105.63L175.138 86.1299C175.048 85.9319 175 85.7159 175 85.4999V75.8129C174.376 75.468 173.293 75 172 75C170.356 75 166 79.086 166 84C166 89.28 168.874 96.8909 168.901 96.966C169.075 97.425 169.015 97.9441 168.736 98.352C168.454 98.757 167.992 99 167.5 99H146.857C144.355 99 142.231 100.791 142.021 103.077C141.862 104.787 142.684 106.413 144.157 107.322C144.616 107.604 144.889 108.114 144.868 108.657C144.847 109.2 144.535 109.686 144.055 109.935C142.786 110.58 142 111.852 142 113.25C142 115.143 143.431 116.733 145.327 116.952Z" fill="#159822" stroke="#159822"/>
<path d="M188.5 105C189.328 105 190 105.672 190 106.5V133.5C190 134.328 189.328 135 188.5 135C187.672 135 187 134.328 187 133.5V106.5C187 105.672 187.672 105 188.5 105Z" fill="#159822" stroke="#159822"/>
</svg>
