<svg width="80" height="24" viewBox="0 0 80 24" fill="none" xmlns="http://www.w3.org/2000/svg">
<g clip-path="url(#clip0)">
<path d="M12.75 3.75035C16.1455 4.98343 18.3519 10.8067 19.3452 12.9676C20.5918 16.1039 18.8449 18.8159 16.6825 20.4824C14.5201 22.1489 6.02055 24.0285 2.625 16.5004C-0.770557 8.97221 8.50561 2.209 12.75 3.75035Z" fill="#E2A977" fill-opacity="0.15"/>
<path d="M22.3199 13.4499L21.6984 10.9639C21.8683 10.9278 21.9958 10.777 21.9958 10.5964V10.1956C21.9958 9.3253 21.2878 8.6173 20.4175 8.6173H17.5867V7.79057C17.5867 7.36232 17.2383 7.01394 16.81 7.01394H11.5463L14.745 5.73444C14.9377 5.65738 15.0314 5.43866 14.9543 5.24596C14.8773 5.0533 14.6587 4.9595 14.4659 5.03661L11.8468 6.08422C12.6449 5.57216 13.4345 5.00858 13.7351 4.61446C14.3203 3.84716 14.1721 2.74682 13.4048 2.16158C12.6375 1.5763 11.5372 1.72457 10.9519 2.49186C10.5243 3.05258 9.96014 4.6281 9.59498 5.73833C9.22983 4.62819 8.66564 3.05258 8.23805 2.49186C7.65286 1.72457 6.55247 1.57639 5.78517 2.16158C5.01788 2.74677 4.8697 3.84711 5.45489 4.61446C5.7555 5.00863 6.54506 5.57216 7.3432 6.08422L4.72411 5.03661C4.53131 4.95941 4.31269 5.05325 4.23563 5.24596C4.15852 5.43866 4.25227 5.65738 4.44497 5.73444L7.64372 7.01394H2.37994C1.95169 7.01394 1.60331 7.36232 1.60331 7.79057V14.6048C1.60331 14.8123 1.77155 14.9806 1.97911 14.9806C2.18663 14.9806 2.35491 14.8123 2.35491 14.6048V7.79057C2.35491 7.77674 2.36611 7.76553 2.37994 7.76553H16.81C16.8238 7.76553 16.835 7.77674 16.835 7.79057V14.6049C16.835 14.8124 17.0033 14.9807 17.2108 14.9807C17.4183 14.9807 17.5866 14.8124 17.5866 14.6049V14.1789H22.0194C22.0198 14.1789 22.0201 14.179 22.0206 14.179C22.021 14.179 22.0214 14.1789 22.0218 14.1789C22.5672 14.1793 23.0303 14.5374 23.1893 15.0307H22.0208C21.8133 15.0307 21.645 15.1989 21.645 15.4065V16.2081C21.645 16.8574 22.1732 17.3856 22.8225 17.3856H23.2484V19.039H22.2658C21.943 18.107 21.057 17.4357 20.0167 17.4357C18.9763 17.4357 18.0902 18.107 17.7675 19.039H17.5866V16.2081C17.5866 16.0006 17.4183 15.8323 17.2108 15.8323C17.0032 15.8323 16.835 16.0005 16.835 16.2081V19.039H9.0383C8.71552 18.107 7.82953 17.4356 6.78914 17.4356C5.74875 17.4356 4.86272 18.107 4.53998 19.039H2.37994C2.36611 19.039 2.35491 19.0278 2.35491 19.0139V18.1872H3.9833C4.19081 18.1872 4.35909 18.019 4.35909 17.8114C4.35909 17.6038 4.19086 17.4356 3.9833 17.4356H0.375797C0.168281 17.4356 0 17.6038 0 17.8114C0 18.019 0.168234 18.1872 0.375797 18.1872H1.60336V19.0139C1.60336 19.4422 1.95173 19.7906 2.37998 19.7906H4.40986C4.40977 19.7989 4.4092 19.8072 4.4092 19.8156C4.4092 21.1279 5.47688 22.1955 6.78914 22.1955C8.10141 22.1955 9.16908 21.1279 9.16908 19.8156C9.16908 19.8072 9.16852 19.7989 9.16842 19.7906H17.6373C17.6372 19.7989 17.6367 19.8072 17.6367 19.8156C17.6367 21.1279 18.7043 22.1955 20.0166 22.1955C21.3289 22.1955 22.3965 21.1279 22.3965 19.8156C22.3965 19.8072 22.396 19.7989 22.3959 19.7906H23.6242C23.8317 19.7906 24 19.6223 24 19.4148V15.4064C24 14.4167 23.2698 13.5944 22.3199 13.4499ZM8.10469 5.6743C6.62236 4.75316 6.18267 4.32936 6.0525 4.15864C5.71861 3.72088 5.80317 3.09308 6.24098 2.75919C6.42145 2.62157 6.63417 2.55505 6.84534 2.55505C7.14637 2.55505 7.44422 2.69033 7.64048 2.94768C8.004 3.4243 8.5733 5.0285 8.94914 6.18449C8.6955 6.03514 8.40394 5.86035 8.10469 5.6743ZM10.2409 6.18444C10.6168 5.0285 11.1861 3.42435 11.5495 2.94763C11.8834 2.50986 12.5112 2.42535 12.949 2.75919C13.3868 3.09308 13.4713 3.72088 13.1375 4.15864C13.0073 4.32932 12.5676 4.75316 11.0854 5.67425C10.7862 5.86025 10.4946 6.0351 10.2409 6.18444ZM17.5867 9.3688H20.4175C20.8734 9.3688 21.2443 9.73967 21.2443 10.1955V10.2206H17.5867V9.3688ZM17.5867 13.4273V10.9722H20.9258L21.5396 13.4273H17.5867ZM6.78914 21.444C5.89125 21.444 5.16075 20.7135 5.16075 19.8156C5.16075 18.9177 5.89125 18.1872 6.78914 18.1872C7.68703 18.1872 8.41753 18.9177 8.41753 19.8156C8.41753 20.7135 7.68703 21.444 6.78914 21.444ZM20.0167 21.444C19.1188 21.444 18.3883 20.7135 18.3883 19.8156C18.3883 18.9177 19.1188 18.1872 20.0167 18.1872C20.9146 18.1872 21.6451 18.9177 21.6451 19.8156C21.6451 20.7135 20.9146 21.444 20.0167 21.444ZM23.2485 16.634H22.8225C22.5877 16.634 22.3966 16.4429 22.3966 16.208V15.7821H23.2484V16.634H23.2485Z" fill="#159822"/>
<path d="M6.78918 19.0391C6.36093 19.0391 6.01255 19.3874 6.01255 19.8157C6.01255 20.2439 6.36093 20.5923 6.78918 20.5923C7.21743 20.5923 7.5658 20.2439 7.5658 19.8157C7.5658 19.3874 7.21743 19.0391 6.78918 19.0391Z" fill="#159822"/>
<path d="M20.0167 19.0391C19.5885 19.0391 19.2401 19.3874 19.2401 19.8157C19.2401 20.2439 19.5885 20.5923 20.0167 20.5923C20.445 20.5923 20.7934 20.2439 20.7934 19.8157C20.7934 19.3874 20.445 19.0391 20.0167 19.0391Z" fill="#159822"/>
<path d="M15.6075 17.4355H9.99582C9.78831 17.4355 9.62003 17.6038 9.62003 17.8113C9.62003 18.0189 9.78826 18.1871 9.99582 18.1871H15.6075C15.815 18.1871 15.9833 18.0189 15.9833 17.8113C15.9833 17.6038 15.8151 17.4355 15.6075 17.4355Z" fill="#159822"/>
<path d="M5.98743 15.833H1.17741C0.969894 15.833 0.801613 16.0012 0.801613 16.2088C0.801613 16.4164 0.969847 16.5846 1.17741 16.5846H5.98743C6.19495 16.5846 6.36323 16.4164 6.36323 16.2088C6.36323 16.0012 6.19495 15.833 5.98743 15.833Z" fill="#159822"/>
<path d="M4.1505 13.75C4.0845 13.75 4.029 13.7275 3.984 13.6825C3.939 13.6375 3.9165 13.582 3.9165 13.516V10.4695C3.9165 10.4005 3.939 10.345 3.984 10.303C4.029 10.258 4.0845 10.2355 4.1505 10.2355H6.1845C6.2535 10.2355 6.309 10.2565 6.351 10.2985C6.393 10.3375 6.414 10.39 6.414 10.456C6.414 10.519 6.393 10.57 6.351 10.609C6.309 10.648 6.2535 10.6675 6.1845 10.6675H4.3845V11.761H5.676C5.745 11.761 5.8005 11.782 5.8425 11.824C5.8845 11.863 5.9055 11.914 5.9055 11.977C5.9055 12.04 5.8845 12.0925 5.8425 12.1345C5.8005 12.1735 5.745 12.193 5.676 12.193H4.3845V13.516C4.3845 13.582 4.362 13.6375 4.317 13.6825C4.272 13.7275 4.2165 13.75 4.1505 13.75ZM7.2465 13.75C7.1805 13.75 7.125 13.7275 7.08 13.6825C7.035 13.6375 7.0125 13.582 7.0125 13.516V10.4695C7.0125 10.4005 7.035 10.345 7.08 10.303C7.125 10.258 7.1805 10.2355 7.2465 10.2355H8.0565C8.2815 10.2355 8.481 10.2835 8.655 10.3795C8.829 10.4725 8.964 10.6015 9.06 10.7665C9.159 10.9315 9.2085 11.1235 9.2085 11.3425C9.2085 11.5585 9.1545 11.749 9.0465 11.914C8.9385 12.076 8.7915 12.199 8.6055 12.283L9.294 13.39C9.348 13.477 9.3555 13.5595 9.3165 13.6375C9.2775 13.7125 9.21 13.75 9.114 13.75C9.027 13.75 8.9595 13.7125 8.9115 13.6375L8.1375 12.3955C8.1105 12.3955 8.0835 12.3955 8.0565 12.3955H7.4805V13.516C7.4805 13.582 7.458 13.6375 7.413 13.6825C7.371 13.7275 7.3155 13.75 7.2465 13.75ZM7.4805 11.9635H8.0565C8.2605 11.9635 8.4285 11.9065 8.5605 11.7925C8.6925 11.6755 8.7585 11.5255 8.7585 11.3425C8.7585 11.1445 8.6925 10.9825 8.5605 10.8565C8.4285 10.7305 8.2605 10.6675 8.0565 10.6675H7.4805V11.9635ZM10.0898 13.75C10.0238 13.75 9.96826 13.7275 9.92326 13.6825C9.87826 13.6375 9.85576 13.582 9.85576 13.516V10.4695C9.85576 10.4005 9.87826 10.345 9.92326 10.303C9.96826 10.258 10.0238 10.2355 10.0898 10.2355H12.1238C12.1928 10.2355 12.2483 10.2565 12.2903 10.2985C12.3323 10.3375 12.3533 10.39 12.3533 10.456C12.3533 10.519 12.3323 10.57 12.2903 10.609C12.2483 10.648 12.1928 10.6675 12.1238 10.6675H10.3238V11.761H11.6153C11.6843 11.761 11.7398 11.782 11.7818 11.824C11.8238 11.863 11.8448 11.914 11.8448 11.977C11.8448 12.04 11.8238 12.0925 11.7818 12.1345C11.7398 12.1735 11.6843 12.193 11.6153 12.193H10.3238V13.318H12.1238C12.1928 13.318 12.2483 13.3375 12.2903 13.3765C12.3323 13.4155 12.3533 13.4665 12.3533 13.5295C12.3533 13.5955 12.3323 13.6495 12.2903 13.6915C12.2483 13.7305 12.1928 13.75 12.1238 13.75H10.0898ZM13.2406 13.75C13.1746 13.75 13.1191 13.7275 13.0741 13.6825C13.0291 13.6375 13.0066 13.582 13.0066 13.516V10.4695C13.0066 10.4005 13.0291 10.345 13.0741 10.303C13.1191 10.258 13.1746 10.2355 13.2406 10.2355H15.2746C15.3436 10.2355 15.3991 10.2565 15.4411 10.2985C15.4831 10.3375 15.5041 10.39 15.5041 10.456C15.5041 10.519 15.4831 10.57 15.4411 10.609C15.3991 10.648 15.3436 10.6675 15.2746 10.6675H13.4746V11.761H14.7661C14.8351 11.761 14.8906 11.782 14.9326 11.824C14.9746 11.863 14.9956 11.914 14.9956 11.977C14.9956 12.04 14.9746 12.0925 14.9326 12.1345C14.8906 12.1735 14.8351 12.193 14.7661 12.193H13.4746V13.318H15.2746C15.3436 13.318 15.3991 13.3375 15.4411 13.3765C15.4831 13.4155 15.5041 13.4665 15.5041 13.5295C15.5041 13.5955 15.4831 13.6495 15.4411 13.6915C15.3991 13.7305 15.3436 13.75 15.2746 13.75H13.2406Z" fill="#159822"/>
</g>
<path d="M32.1289 6.92969H29.3867V8.63281H30.8008C31.3945 8.64062 31.8581 8.79297 32.1914 9.08984C32.5247 9.38672 32.6914 9.79036 32.6914 10.3008C32.6914 10.8138 32.5234 11.2227 32.1875 11.5273C31.8516 11.832 31.3932 11.9896 30.8125 12H28.6328V6.3125H32.1289V6.92969ZM29.3867 9.25V11.3867H30.7578C31.1302 11.3867 31.4193 11.2878 31.625 11.0898C31.8333 10.8919 31.9375 10.6263 31.9375 10.293C31.9375 9.97266 31.8372 9.72005 31.6367 9.53516C31.4388 9.35026 31.1562 9.25521 30.7891 9.25H29.3867ZM36.9219 9.37109H34.457V11.3867H37.3203V12H33.707V6.3125H37.2812V6.92969H34.457V8.75781H36.9219V9.37109ZM42.4375 10.1953C42.3672 10.7969 42.1445 11.2617 41.7695 11.5898C41.3971 11.9154 40.901 12.0781 40.2812 12.0781C39.6094 12.0781 39.0703 11.8372 38.6641 11.3555C38.2604 10.8737 38.0586 10.2292 38.0586 9.42188V8.875C38.0586 8.34635 38.1523 7.88151 38.3398 7.48047C38.5299 7.07943 38.7982 6.77214 39.1445 6.55859C39.4909 6.34245 39.8919 6.23438 40.3477 6.23438C40.9518 6.23438 41.4362 6.40365 41.8008 6.74219C42.1654 7.07812 42.3776 7.54427 42.4375 8.14062H41.6836C41.6185 7.6875 41.4766 7.35938 41.2578 7.15625C41.0417 6.95312 40.7383 6.85156 40.3477 6.85156C39.8685 6.85156 39.4922 7.02865 39.2188 7.38281C38.9479 7.73698 38.8125 8.24089 38.8125 8.89453V9.44531C38.8125 10.0625 38.9414 10.5534 39.1992 10.918C39.457 11.2826 39.8177 11.4648 40.2812 11.4648C40.6979 11.4648 41.0169 11.3711 41.2383 11.1836C41.4622 10.9935 41.6107 10.6641 41.6836 10.1953H42.4375ZM47.8086 12H47.0547V6.92969H44.25V12H43.5V6.3125H47.8086V12ZM53.4766 6.3125V12H52.7266V6.92969H50.6875L50.5859 9.18359C50.5469 9.9388 50.4688 10.5065 50.3516 10.8867C50.237 11.2669 50.0677 11.5469 49.8438 11.7266C49.6198 11.9036 49.3203 11.9948 48.9453 12H48.6992V11.3867L48.8555 11.3789C49.0977 11.3607 49.2839 11.2826 49.4141 11.1445C49.5443 11.0039 49.6432 10.7812 49.7109 10.4766C49.7786 10.1719 49.8268 9.70312 49.8555 9.07031L49.9727 6.3125H53.4766ZM58.0508 10.5156H55.668L55.1328 12H54.3594L56.5312 6.3125H57.1875L59.3633 12H58.5938L58.0508 10.5156ZM55.8945 9.89844H57.8281L56.8594 7.23828L55.8945 9.89844ZM63.5508 6.92969H61.7227V12H60.9766V6.92969H59.1523V6.3125H63.5508V6.92969ZM68.7656 12H68.0117V9.37109H65.1445V12H64.3945V6.3125H65.1445V8.75781H68.0117V6.3125H68.7656V12ZM73.3086 10.5156H70.9258L70.3906 12H69.6172L71.7891 6.3125H72.4453L74.6211 12H73.8516L73.3086 10.5156ZM71.1523 9.89844H73.0859L72.1172 7.23828L71.1523 9.89844ZM78.3633 12V9.78516H77.0508L75.875 12H75.0742L76.3945 9.57812C75.6602 9.28906 75.293 8.77214 75.293 8.02734C75.293 7.48568 75.4701 7.0651 75.8242 6.76562C76.181 6.46354 76.6758 6.3125 77.3086 6.3125H79.1172V12H78.3633ZM76.043 8.02734C76.043 8.37109 76.1497 8.64714 76.3633 8.85547C76.5794 9.0638 76.8789 9.16927 77.2617 9.17188H78.3633V6.92969H77.2969C76.8906 6.92969 76.5794 7.02604 76.3633 7.21875C76.1497 7.41146 76.043 7.68099 76.043 8.02734ZM33.7773 23.3945H33.0312V22H28.9492V23.3984H28.1992L28.1953 21.3867H28.6602C28.9049 21.1107 29.099 20.7409 29.2422 20.2773C29.388 19.8112 29.4792 19.3008 29.5156 18.7461L29.6406 16.3125H33.043V21.3867H33.7852L33.7773 23.3945ZM29.5156 21.3867H32.2891V16.9297H30.3633L30.2812 18.6016C30.2474 19.2552 30.1602 19.8125 30.0195 20.2734C29.8815 20.7344 29.7135 21.1055 29.5156 21.3867ZM38.957 19.3398C38.957 19.8971 38.8633 20.3841 38.6758 20.8008C38.4883 21.2148 38.2227 21.5312 37.8789 21.75C37.5352 21.9688 37.1341 22.0781 36.6758 22.0781C36.2279 22.0781 35.8307 21.9688 35.4844 21.75C35.138 21.5286 34.8685 21.2148 34.6758 20.8086C34.4857 20.3997 34.388 19.9271 34.3828 19.3906V18.9805C34.3828 18.4336 34.4779 17.9505 34.668 17.5312C34.8581 17.112 35.1263 16.7917 35.4727 16.5703C35.8216 16.3464 36.2201 16.2344 36.668 16.2344C37.1237 16.2344 37.5247 16.3451 37.8711 16.5664C38.2201 16.7852 38.4883 17.1042 38.6758 17.5234C38.8633 17.9401 38.957 18.4258 38.957 18.9805V19.3398ZM38.2109 18.9727C38.2109 18.2982 38.0755 17.7812 37.8047 17.4219C37.5339 17.0599 37.1549 16.8789 36.668 16.8789C36.194 16.8789 35.8203 17.0599 35.5469 17.4219C35.276 17.7812 35.1367 18.2812 35.1289 18.9219V19.3398C35.1289 19.9935 35.2656 20.5078 35.5391 20.8828C35.8151 21.2552 36.194 21.4414 36.6758 21.4414C37.1602 21.4414 37.5352 21.2656 37.8008 20.9141C38.0664 20.5599 38.2031 20.0534 38.2109 19.3945V18.9727ZM44.2656 20.1953C44.1953 20.7969 43.9727 21.2617 43.5977 21.5898C43.2253 21.9154 42.7292 22.0781 42.1094 22.0781C41.4375 22.0781 40.8984 21.8372 40.4922 21.3555C40.0885 20.8737 39.8867 20.2292 39.8867 19.4219V18.875C39.8867 18.3464 39.9805 17.8815 40.168 17.4805C40.3581 17.0794 40.6263 16.7721 40.9727 16.5586C41.319 16.3424 41.7201 16.2344 42.1758 16.2344C42.7799 16.2344 43.2643 16.4036 43.6289 16.7422C43.9935 17.0781 44.2057 17.5443 44.2656 18.1406H43.5117C43.4466 17.6875 43.3047 17.3594 43.0859 17.1562C42.8698 16.9531 42.5664 16.8516 42.1758 16.8516C41.6966 16.8516 41.3203 17.0286 41.0469 17.3828C40.776 17.737 40.6406 18.2409 40.6406 18.8945V19.4453C40.6406 20.0625 40.7695 20.5534 41.0273 20.918C41.2852 21.2826 41.6458 21.4648 42.1094 21.4648C42.526 21.4648 42.8451 21.3711 43.0664 21.1836C43.2904 20.9935 43.4388 20.6641 43.5117 20.1953H44.2656ZM49.1055 16.9297H47.2773V22H46.5312V16.9297H44.707V16.3125H49.1055V16.9297ZM52.7773 20.5156H50.3945L49.8594 22H49.0859L51.2578 16.3125H51.9141L54.0898 22H53.3203L52.7773 20.5156ZM50.6211 19.8984H52.5547L51.5859 17.2383L50.6211 19.8984ZM54.8555 22V16.3125H56.7148C57.332 16.3125 57.7956 16.4401 58.1055 16.6953C58.418 16.9505 58.5742 17.3281 58.5742 17.8281C58.5742 18.0938 58.4987 18.3294 58.3477 18.5352C58.1966 18.7383 57.9909 18.8958 57.7305 19.0078C58.0378 19.0938 58.2799 19.2578 58.457 19.5C58.6367 19.7396 58.7266 20.026 58.7266 20.3594C58.7266 20.8698 58.5612 21.2708 58.2305 21.5625C57.8997 21.8542 57.4323 22 56.8281 22H54.8555ZM55.6055 19.3398V21.3867H56.8438C57.1927 21.3867 57.4674 21.2969 57.668 21.1172C57.8711 20.9349 57.9727 20.6849 57.9727 20.3672C57.9727 19.6823 57.6003 19.3398 56.8555 19.3398H55.6055ZM55.6055 18.7383H56.7383C57.0664 18.7383 57.3281 18.6562 57.5234 18.4922C57.7214 18.3281 57.8203 18.1055 57.8203 17.8242C57.8203 17.5117 57.7292 17.2852 57.5469 17.1445C57.3646 17.0013 57.0872 16.9297 56.7148 16.9297H55.6055V18.7383ZM61.3164 19.4453H60.625V22H59.875V16.3125H60.625V18.8203H61.2109L63.1992 16.3125H64.1328L61.9609 19.0703L64.293 22H63.375L61.3164 19.4453ZM68.1211 20.5156H65.7383L65.2031 22H64.4297L66.6016 16.3125H67.2578L69.4336 22H68.6641L68.1211 20.5156ZM65.9648 19.8984H67.8984L66.9297 17.2383L65.9648 19.8984Z" fill="#159822"/>
<defs>
<clipPath id="clip0">
<rect width="24" height="24" fill="white"/>
</clipPath>
</defs>
</svg>
