<svg width="135" height="162" viewBox="0 0 135 162" fill="none" xmlns="http://www.w3.org/2000/svg">
<circle cx="67.5" cy="67.5" r="58" stroke="#D1D1D1"/>
<circle cx="67.5" cy="154.5" r="7.5" fill="#159822"/>
<path d="M132.5 67.5C132.5 103.399 103.399 132.5 67.5 132.5C31.6015 132.5 2.5 103.399 2.5 67.5C2.5 31.6015 31.6015 2.5 67.5 2.5C103.399 2.5 132.5 31.6015 132.5 67.5ZM67.5 134.5C104.503 134.5 134.5 104.503 134.5 67.5C134.5 30.4969 104.503 0.5 67.5 0.5C30.4969 0.5 0.5 30.4969 0.5 67.5C0.5 104.503 30.4969 134.5 67.5 134.5Z" fill="#159822" stroke="#159822"/>
<path fill-rule="evenodd" clip-rule="evenodd" d="M66 148L66 134L69 134L69 148L66 148Z" fill="#159822"/>
<g clip-path="url(#clip0)">
<path d="M32.2215 35.4213L36.89 43.5906C37.0474 43.8666 37.311 44.0664 37.6192 44.1437L41.9746 45.2325L56.9128 60.1707L58.5633 58.5206L43.3914 43.3491C43.2421 43.1993 43.0548 43.0932 42.8498 43.0418L38.6649 41.9919L34.6902 35.0324L38.0979 31.6247L45.0602 35.6033L46.1107 39.7882C46.1615 39.9937 46.2681 40.1814 46.4174 40.3308L61.5894 55.5027L63.2395 53.8521L48.3013 38.914L47.2125 34.561C47.1352 34.2523 46.9355 33.9882 46.6594 33.8303L38.4896 29.1623C38.034 28.9031 37.4608 28.9799 37.0892 29.35L32.4212 34.0185C32.0458 34.3877 31.9642 34.9619 32.2215 35.4213Z" fill="#159822"/>
<path d="M80.7423 52.0007L55.0673 77.6761L53.4167 76.0256L79.0922 50.3506L80.7423 52.0007Z" fill="#159822"/>
<path d="M50.5735 78.5846C50.3623 78.2332 49.983 78.0186 49.573 78.0186H42.5708C42.1613 78.0186 41.7815 78.2332 41.5708 78.5846L38.0695 84.4196C37.8472 84.7893 37.8472 85.2516 38.0695 85.6218L41.5708 91.4569C41.7815 91.8078 42.1613 92.0229 42.5708 92.0229H49.573C49.983 92.0229 50.3623 91.8078 50.5735 91.4569L54.0744 85.6218C54.2966 85.2516 54.2966 84.7893 54.0744 84.4196L50.5735 78.5846ZM48.9129 89.6887H43.2314L40.4306 85.0207L43.2314 80.3523H48.9129L51.7137 85.0207L48.9129 89.6887Z" fill="#159822"/>
<path d="M88.0858 57.0116C95.7937 57.0375 102.064 50.8097 102.09 43.1018C102.094 41.9284 101.949 40.7599 101.661 39.6225C101.505 38.997 100.872 38.6163 100.247 38.7718C100.041 38.8232 99.8539 38.9293 99.7041 39.0786L92.4393 46.3386L86.6753 44.4177L84.753 38.6552L92.0178 31.3889C92.4734 30.9328 92.4729 30.194 92.0168 29.7384C91.8665 29.5881 91.6774 29.4815 91.4705 29.4306C83.9954 27.5376 76.4017 32.0625 74.5087 39.5371C74.2211 40.6711 74.0776 41.8367 74.0814 43.0067C74.0843 43.9256 74.1789 44.8417 74.3652 45.7414L48.8064 71.2997C47.9067 71.1139 46.9906 71.0193 46.0722 71.0159C38.3374 71.0159 32.0674 77.286 32.0674 85.0208C32.0674 92.7551 38.3374 99.0251 46.0722 99.0251C53.8066 99.0251 60.0766 92.7551 60.0766 85.0208C60.0737 84.1019 59.9786 83.1859 59.7929 82.2862L65.9117 76.1674L68.5877 78.8434C69.0438 79.299 69.7822 79.299 70.2383 78.8434L70.8216 78.2596C71.3334 77.7512 72.1606 77.7512 72.6724 78.2596C73.1837 78.7695 73.1846 79.5972 72.6748 80.1085C72.6743 80.1089 72.6733 80.1099 72.6724 80.1109L72.089 80.6942C71.6334 81.1498 71.6334 81.8887 72.089 82.3443L86.0108 96.266C89.6725 99.9613 95.6362 99.9882 99.3315 96.3265C103.026 92.6649 103.053 86.7006 99.3915 83.0058C99.3719 82.9857 99.3517 82.9655 99.3315 82.9453L85.4097 69.024C84.9541 68.5684 84.2153 68.5684 83.7597 69.024L83.1763 69.6073C82.6641 70.1162 81.8374 70.1162 81.3251 69.6073C80.8143 69.0975 80.8128 68.2698 81.3227 67.759C81.3237 67.758 81.3246 67.7575 81.3251 67.7566L81.9089 67.1728C82.3645 66.7172 82.3645 65.9783 81.9089 65.5227L79.2328 62.8467L85.3517 56.7278C86.2514 56.9136 87.1674 57.0087 88.0858 57.0116ZM92.6712 96.6914C91.8233 96.69 90.9827 96.5368 90.1891 96.2387L99.3037 87.1236C100.679 90.7824 98.8284 94.8632 95.1696 96.2387C94.3712 96.5387 93.5248 96.6924 92.6712 96.6914ZM79.4499 66.3595C78.1574 67.9011 78.36 70.1988 79.9016 71.4908C81.2564 72.6262 83.2311 72.6252 84.5845 71.4874L97.6814 84.5959C97.8236 84.7385 97.9565 84.8888 98.0852 85.0414L88.1069 95.0197C87.9538 94.8915 87.8035 94.7585 87.6609 94.616L74.5538 81.5079C75.8463 79.9664 75.6437 77.6686 74.1021 76.3767C72.7472 75.2408 70.7721 75.2422 69.4188 76.3796L67.5517 74.5125L77.5823 64.4967L79.4499 66.3595ZM84.1625 54.6217L57.6876 81.0912C57.3972 81.3812 57.2805 81.8022 57.3794 82.2002C58.9805 88.488 55.1811 94.8834 48.8928 96.484C42.605 98.0851 36.2096 94.2857 34.6085 87.9974C33.0079 81.7096 36.8074 75.3142 43.0956 73.7131C44.9978 73.2292 46.9906 73.2292 48.8928 73.7131C49.2908 73.8106 49.7109 73.6939 50.0018 73.4054L76.4704 46.9354C76.7604 46.6454 76.877 46.2243 76.7772 45.8268C75.1871 39.6125 78.9357 33.2858 85.15 31.6952C86.3243 31.3952 87.539 31.2799 88.7488 31.3553L82.5926 37.514C82.28 37.826 82.1705 38.2884 82.3103 38.7075L84.644 45.7102C84.7607 46.0582 85.0343 46.3319 85.3829 46.4476L92.3855 48.7818C92.8042 48.9215 93.2665 48.8125 93.579 48.5005L99.7353 42.3442C99.7492 42.567 99.7564 42.7873 99.7564 43.0067C99.7891 49.4194 94.6175 54.6442 88.2049 54.6774C87.2135 54.6822 86.2254 54.5602 85.2652 54.3144C84.8672 54.215 84.4462 54.3312 84.1562 54.6212H84.1625V54.6217Z" fill="#159822"/>
<path d="M92.4132 87.6965L90.7627 89.3471L79.0925 77.6769L80.7426 76.0264L92.4132 87.6965Z" fill="#159822"/>
</g>
<defs>
<clipPath id="clip0">
<rect width="70" height="70" fill="white" transform="translate(32 29)"/>
</clipPath>
</defs>
</svg>
