<svg width="136" height="161" viewBox="0 0 136 161" fill="none" xmlns="http://www.w3.org/2000/svg">
<circle cx="67.6221" cy="66.6621" r="58.5" fill="#D1D1D1"/>
<path d="M73.5319 79.3985C61.0822 77.5336 48.5563 70.6642 47.5629 60.3222C46.9813 54.198 52.7083 52.3266 55.4531 52.3092C56.9828 52.3081 58.5087 52.4599 60.0082 52.7624M73.5319 79.3985C71.9977 71.5089 71.2223 63.4904 71.2162 55.453C67.5935 54.4486 61.3588 53.0369 60.0082 52.7624M73.5319 79.3985L75.2463 79.6251M60.0082 52.7624C59.16 52.5802 53.7919 51.677 51.2139 51.2482M75.2463 79.6251C77.9703 72.7717 79.5248 65.5095 79.845 58.1414C86.4836 60.4631 92.9073 63.3585 99.0435 66.795H99.0478C99.5859 77.2873 87.7243 81.0238 75.2463 79.6251ZM51.2139 51.2482C48.2774 50.8386 45.3728 50.5358 42.5002 50.3397C40.834 50.3842 39.1891 50.725 37.6423 51.3462L37.6314 51.3659C41.5654 44.5328 47.6449 39.1896 54.9262 36.1659C62.2074 33.1421 70.2831 32.6069 77.8997 34.6432C85.5162 36.6795 92.2475 41.1735 97.0488 47.4276C101.85 53.6816 104.453 61.346 104.453 69.2308C104.453 69.4334 104.453 69.6337 104.453 69.8364C103.721 69.3919 102.982 68.9562 102.237 68.5292C102.257 93.8734 41.9643 88.1828 38.1542 61.8212C37.0302 54.0413 43.9816 51.2939 47.3777 51.0957C48.647 51.1218 49.9257 51.1727 51.2139 51.2482ZM108.28 69.2111C108.28 77.0482 105.956 84.7094 101.603 91.2258C97.2491 97.7421 91.061 102.821 83.8212 105.82C76.5813 108.819 68.6148 109.604 60.9291 108.075C53.2433 106.546 46.1835 102.772 40.6423 97.2303C35.1012 91.6886 31.3276 84.6281 29.7989 76.9416C28.2701 69.255 29.0546 61.2877 32.0535 54.0472C35.0523 46.8066 40.1308 40.6181 46.6464 36.264C53.1621 31.9099 60.8224 29.5859 68.6587 29.5859C73.8623 29.5851 79.0152 30.6093 83.8229 32.6003C88.6306 34.5913 92.9991 37.51 96.6788 41.1896C100.358 44.8693 103.277 49.2379 105.269 54.0458C107.26 58.8538 108.285 64.007 108.284 69.2111H108.28ZM100.555 85.479C84.4197 97.54 42.7072 89.5357 32.8542 69.2634C32.8638 77.3021 35.5779 85.1038 40.5596 91.4124C45.5414 97.7211 52.5009 102.17 60.3179 104.042C68.1348 105.914 76.3543 105.101 83.6531 101.734C90.952 98.367 96.9055 92.6413 100.555 85.479Z" stroke="#159822" stroke-width="3" stroke-linejoin="round"/>
<circle cx="67.6221" cy="153.5" r="7.5" fill="#159822"/>
<path fill-rule="evenodd" clip-rule="evenodd" d="M67.6221 132C103.797 132 133.122 102.675 133.122 66.5C133.122 30.3253 103.797 1 67.6221 1C31.4474 1 2.12207 30.3253 2.12207 66.5C2.12207 102.675 31.4474 132 67.6221 132ZM67.6221 133C104.349 133 134.122 103.227 134.122 66.5C134.122 29.7731 104.349 0 67.6221 0C30.8951 0 1.12207 29.7731 1.12207 66.5C1.12207 103.227 30.8951 133 67.6221 133Z" fill="#D1D1D1"/>
<path fill-rule="evenodd" clip-rule="evenodd" d="M3.10001 67C3.10001 102.635 31.9875 131.522 67.6221 131.522C103.257 131.522 132.144 102.635 132.144 67H135.122C135.122 104.279 104.901 134.5 67.6221 134.5C30.3428 134.5 0.12207 104.279 0.12207 67H3.10001Z" fill="#159822"/>
<path fill-rule="evenodd" clip-rule="evenodd" d="M66.1221 147L66.1221 133L69.1221 133L69.1221 147L66.1221 147Z" fill="#159822"/>
</svg>
