<svg width="67" height="24" viewBox="0 0 67 24" fill="none" xmlns="http://www.w3.org/2000/svg">
<path d="M5.24996 7.5C7.64996 4.8 13 3.875 15.375 3.75C18.7499 3.75 20.625 6.375 21.375 9C22.125 11.625 16.875 18.375 8.62496 18.75C0.374963 19.125 2.24996 10.875 5.24996 7.5Z" fill="#E2A977" fill-opacity="0.15"/>
<path fill-rule="evenodd" clip-rule="evenodd" d="M13.5 1.50374V10.5001H22.4964C22.1325 5.70011 18.3 1.86758 13.5 1.50374ZM23.2484 10.5C23.2775 10.9132 22.9389 11.2501 22.5247 11.2501H13.5C13.0858 11.2501 12.75 10.9143 12.75 10.5001V1.47543C12.75 1.06121 13.0869 0.72265 13.5001 0.751745C18.7149 1.11896 22.8812 5.28522 23.2484 10.5Z" fill="#159822"/>
<path fill-rule="evenodd" clip-rule="evenodd" d="M11.2623 2.97628C11.2623 2.97629 11.2623 2.97627 11.2623 2.97628L11.2623 12.7377H21.0238C21.438 12.7377 21.7774 13.0746 21.7483 13.4878C21.3637 18.9436 16.8159 23.2501 11.2623 23.2501C5.45653 23.2501 0.75 18.5435 0.75 12.7377C0.75 7.18413 5.0565 2.63638 10.5122 2.25175C10.9254 2.22262 11.2623 2.56208 11.2623 2.97628ZM20.9953 13.4886H11.2614C10.8472 13.4886 10.5114 13.1528 10.5114 12.7386V3.00473C5.4712 3.38815 1.50088 7.59928 1.50088 12.7377C1.50088 18.1288 5.87123 22.4992 11.2623 22.4992C16.4008 22.4992 20.6119 18.5288 20.9953 13.4886Z" fill="#159822"/>
<path d="M33.0352 9.33984C33.0352 9.89714 32.9414 10.3841 32.7539 10.8008C32.5664 11.2148 32.3008 11.5312 31.957 11.75C31.6133 11.9688 31.2122 12.0781 30.7539 12.0781C30.306 12.0781 29.9089 11.9688 29.5625 11.75C29.2161 11.5286 28.9466 11.2148 28.7539 10.8086C28.5638 10.3997 28.4661 9.92708 28.4609 9.39062V8.98047C28.4609 8.43359 28.556 7.95052 28.7461 7.53125C28.9362 7.11198 29.2044 6.79167 29.5508 6.57031C29.8997 6.34635 30.2982 6.23438 30.7461 6.23438C31.2018 6.23438 31.6029 6.34505 31.9492 6.56641C32.2982 6.78516 32.5664 7.10417 32.7539 7.52344C32.9414 7.9401 33.0352 8.42578 33.0352 8.98047V9.33984ZM32.2891 8.97266C32.2891 8.29818 32.1536 7.78125 31.8828 7.42188C31.612 7.0599 31.2331 6.87891 30.7461 6.87891C30.2721 6.87891 29.8984 7.0599 29.625 7.42188C29.3542 7.78125 29.2148 8.28125 29.207 8.92188V9.33984C29.207 9.99349 29.3438 10.5078 29.6172 10.8828C29.8932 11.2552 30.2721 11.4414 30.7539 11.4414C31.2383 11.4414 31.6133 11.2656 31.8789 10.9141C32.1445 10.5599 32.2812 10.0534 32.2891 9.39453V8.97266ZM38.5039 12H37.75V6.92969H34.9453V12H34.1953V6.3125H38.5039V12ZM44.1719 6.3125V12H43.4219V6.92969H41.3828L41.2812 9.18359C41.2422 9.9388 41.1641 10.5065 41.0469 10.8867C40.9323 11.2669 40.763 11.5469 40.5391 11.7266C40.3151 11.9036 40.0156 11.9948 39.6406 12H39.3945V11.3867L39.5508 11.3789C39.793 11.3607 39.9792 11.2826 40.1094 11.1445C40.2396 11.0039 40.3385 10.7812 40.4062 10.4766C40.474 10.1719 40.5221 9.70312 40.5508 9.07031L40.668 6.3125H44.1719ZM48.7461 10.5156H46.3633L45.8281 12H45.0547L47.2266 6.3125H47.8828L50.0586 12H49.2891L48.7461 10.5156ZM46.5898 9.89844H48.5234L47.5547 7.23828L46.5898 9.89844ZM54.2461 6.92969H52.418V12H51.6719V6.92969H49.8477V6.3125H54.2461V6.92969ZM57.918 10.5156H55.5352L55 12H54.2266L56.3984 6.3125H57.0547L59.2305 12H58.4609L57.918 10.5156ZM55.7617 9.89844H57.6953L56.7266 7.23828L55.7617 9.89844ZM32.7812 16.3125V22H32.0273V19.6445C31.7539 19.7227 31.5052 19.7773 31.2812 19.8086C31.0573 19.8372 30.8021 19.8516 30.5156 19.8516C29.8672 19.8516 29.3854 19.7109 29.0703 19.4297C28.7552 19.1484 28.5938 18.7174 28.5859 18.1367V16.3125H29.3398V18.1172C29.3424 18.513 29.4323 18.7982 29.6094 18.9727C29.7891 19.1471 30.0911 19.2344 30.5156 19.2344C31.0104 19.2344 31.5143 19.1641 32.0273 19.0234V16.3125H32.7812ZM37.3477 20.5156H34.9648L34.4297 22H33.6562L35.8281 16.3125H36.4844L38.6602 22H37.8906L37.3477 20.5156ZM35.1914 19.8984H37.125L36.1562 17.2383L35.1914 19.8984ZM43.5625 20.1953C43.4922 20.7969 43.2695 21.2617 42.8945 21.5898C42.5221 21.9154 42.026 22.0781 41.4062 22.0781C40.7344 22.0781 40.1953 21.8372 39.7891 21.3555C39.3854 20.8737 39.1836 20.2292 39.1836 19.4219V18.875C39.1836 18.3464 39.2773 17.8815 39.4648 17.4805C39.6549 17.0794 39.9232 16.7721 40.2695 16.5586C40.6159 16.3424 41.0169 16.2344 41.4727 16.2344C42.0768 16.2344 42.5612 16.4036 42.9258 16.7422C43.2904 17.0781 43.5026 17.5443 43.5625 18.1406H42.8086C42.7435 17.6875 42.6016 17.3594 42.3828 17.1562C42.1667 16.9531 41.8633 16.8516 41.4727 16.8516C40.9935 16.8516 40.6172 17.0286 40.3438 17.3828C40.0729 17.737 39.9375 18.2409 39.9375 18.8945V19.4453C39.9375 20.0625 40.0664 20.5534 40.3242 20.918C40.582 21.2826 40.9427 21.4648 41.4062 21.4648C41.8229 21.4648 42.1419 21.3711 42.3633 21.1836C42.5872 20.9935 42.7357 20.6641 42.8086 20.1953H43.5625ZM48.4023 16.9297H46.5742V22H45.8281V16.9297H44.0039V16.3125H48.4023V16.9297ZM52.2227 22V19.7852H50.9102L49.7344 22H48.9336L50.2539 19.5781C49.5195 19.2891 49.1523 18.7721 49.1523 18.0273C49.1523 17.4857 49.3294 17.0651 49.6836 16.7656C50.0404 16.4635 50.5352 16.3125 51.168 16.3125H52.9766V22H52.2227ZM49.9023 18.0273C49.9023 18.3711 50.0091 18.6471 50.2227 18.8555C50.4388 19.0638 50.7383 19.1693 51.1211 19.1719H52.2227V16.9297H51.1562C50.75 16.9297 50.4388 17.026 50.2227 17.2188C50.0091 17.4115 49.9023 17.681 49.9023 18.0273ZM55.3086 16.3125L57.168 20.9531L59.0273 16.3125H60V22H59.25V19.7852L59.3203 17.3945L57.4531 22H56.8789L55.0156 17.4062L55.0898 19.7852V22H54.3398V16.3125H55.3086ZM64.9102 16.3125H65.6602V22H64.9102V17.6172L62.1094 22H61.3555V16.3125H62.1094V20.6953L64.9102 16.3125Z" fill="#159822"/>
</svg>
