<svg width="136" height="163" viewBox="0 0 136 163" fill="none" xmlns="http://www.w3.org/2000/svg">
<ellipse cx="67.6384" cy="67.1717" rx="58.5" ry="58.9471" fill="#D1D1D1"/>
<path d="M66.6845 83.411C67.2585 82.8315 67.2585 81.8937 66.6845 81.3142C66.11 80.7364 65.1793 80.7364 64.6042 81.3142C64.0309 81.8937 64.0309 82.8315 64.6042 83.411C65.1793 83.9888 66.11 83.9888 66.6845 83.411Z" fill="#159822"/>
<path d="M49.0148 107.387C49.5847 107.966 50.5125 107.973 51.0899 107.4L58.2185 100.323C59.4296 99.1024 59.7978 97.2955 59.2653 95.7249L60.7986 94.2347C61.6242 93.4312 62.7112 92.9883 63.8602 92.9883H83.4069C86.8747 92.9883 90.1523 91.6463 92.6371 89.2096C92.7394 89.1094 91.8609 90.1521 105.972 73.157C108.065 70.6618 107.752 66.915 105.274 64.8036C102.811 62.7119 99.1211 63.0124 97.0224 65.4648L88.3461 74.4509C87.2505 73.0922 85.5798 72.2452 83.7746 72.2452H67.3786C65.0455 71.2616 62.5699 70.7637 60.0156 70.7637C52.9353 70.7637 46.7529 74.059 43.4351 80.2373C42.0373 79.9704 40.5631 80.3965 39.5025 81.4652L32.5078 88.5346C31.9367 89.1117 31.9356 90.0456 32.5055 90.6245L49.0148 107.387ZM60.015 73.7267C62.2671 73.7267 64.4445 74.1834 66.4881 75.0843C66.6742 75.1665 66.8747 75.2087 67.0775 75.2087H83.7746C85.3689 75.2087 86.7156 76.5189 86.7156 78.1717C86.7156 79.806 85.3965 81.1352 83.7746 81.1352H71.7782C70.9664 81.1352 70.308 81.7987 70.308 82.6167C70.308 83.4353 70.9664 84.0982 71.7782 84.0982H83.7746C87.0178 84.0982 89.6559 81.4398 89.6559 78.1717C89.6559 77.9112 89.6376 77.653 89.6042 77.3971C97.9973 68.7033 99.1808 67.4817 99.2314 67.421C100.279 66.1745 102.14 66.0165 103.377 67.0678C104.616 68.1232 104.773 69.9966 103.722 71.25L90.5338 87.137C88.608 89 86.0796 90.0253 83.4069 90.0253H63.8602C61.9448 90.0253 60.1316 90.7634 58.7562 92.1025L57.5067 93.3177L45.9877 81.7107C48.6798 76.6213 53.7315 73.7267 60.015 73.7267ZM41.5834 83.5592C42.0683 83.0706 42.8129 82.9826 43.4041 83.3508C43.6586 83.5071 42.9278 82.8367 56.1393 96.1313C56.7271 96.7235 56.6955 97.6672 56.1474 98.2195L50.0702 104.253L35.6228 89.583L41.5834 83.5592Z" fill="#159822"/>
<path d="M53 48.2981C53 57.2849 60.2555 64.5968 69.1737 64.5968C78.0919 64.5968 85.3475 57.2849 85.3475 48.2981C85.3475 39.3113 78.0919 32 69.1737 32C60.2555 32 53 39.3113 53 48.2981ZM82.4071 48.2981C82.4071 55.6511 76.4706 61.6332 69.1737 61.6332C61.8768 61.6332 55.9404 55.6511 55.9404 48.2981C55.9404 40.9457 61.8768 34.9636 69.1737 34.9636C76.4706 34.9636 82.4071 40.9457 82.4071 48.2981Z" fill="#159822"/>
<path d="M75.7375 47.5496C75.8973 47.3681 75.9793 47.1509 75.9793 46.909C75.9793 46.6604 75.9022 46.437 75.7326 46.2629C75.5746 46.0845 75.3616 46.0018 75.1221 46.0018H74.3129C74.4799 45.8104 74.621 45.6084 74.7352 45.3955L74.7365 45.3931C75.0551 44.7831 75.2147 44.1316 75.2147 43.4417C75.2147 42.5044 74.9694 41.6752 74.4724 40.9643C73.979 40.2586 73.2971 39.7177 72.4365 39.3388C71.5891 38.944 70.6232 38.75 69.5446 38.75C68.6783 38.75 67.8824 38.8903 67.1603 39.1748C66.4618 39.4408 65.8451 39.802 65.3126 40.2594C64.7855 40.697 64.3486 41.1839 64.0041 41.7203L64.0041 41.7203L64.002 41.7236C63.8268 42.0061 63.7518 42.3042 63.8118 42.6066L63.8133 42.6143L63.8153 42.6219C63.893 42.9153 64.0716 43.1429 64.3371 43.2958L64.3461 43.301L64.3555 43.3054C64.6349 43.4368 64.9255 43.4584 65.2139 43.3622C65.5069 43.2694 65.7359 43.0898 65.8879 42.8274C66.1153 42.4995 66.3857 42.1915 66.6998 41.9038L66.7002 41.9034C67.0181 41.611 67.4086 41.3777 67.8764 41.2063C68.3381 41.0371 68.9008 40.9419 69.5698 40.927C70.6405 40.9274 71.4645 41.1754 72.0673 41.6447L72.0673 41.6448L72.0723 41.6485C72.6729 42.0923 72.9829 42.7443 72.9829 43.6457C72.9829 44.3429 72.7637 44.9149 72.3306 45.3786C72.0991 45.6265 71.7792 45.8361 71.3631 46.0018H63.6072C63.3649 46.0018 63.1497 46.0859 62.98 46.257L62.9741 46.2629L62.9687 46.2692C62.8158 46.4452 62.75 46.6666 62.75 46.909C62.75 47.1423 62.8188 47.3554 62.9595 47.5377L62.969 47.55L62.98 47.561C63.1497 47.7321 63.3649 47.8162 63.6072 47.8162H75.1221C75.3641 47.8162 75.579 47.7317 75.7375 47.5496ZM75.7375 47.5496C75.7373 47.5498 75.7371 47.55 75.7369 47.5503L75.5494 47.3849M75.7375 47.5496C75.7378 47.5493 75.738 47.5491 75.7382 47.5488L75.5494 47.3849M75.5494 47.3849C75.4445 47.5058 75.302 47.5662 75.1221 47.5662H63.6072C63.4273 47.5662 63.2774 47.5058 63.1574 47.3849M75.5494 47.3849C75.6694 47.2489 75.7293 47.0903 75.7293 46.909C75.7293 46.7126 75.6694 46.554 75.5494 46.4331C75.4445 46.3122 75.302 46.2518 75.1221 46.2518L63.1574 47.3849M63.1574 47.3849C63.0525 47.2489 63 47.0903 63 46.909C63 46.7126 63.0525 46.554 63.1574 46.4331V47.3849ZM63.6072 50.6716H64.2962C64.1524 50.8315 64.0344 51.0069 63.9436 51.1982L63.9436 51.1982L63.9416 51.2026C63.7754 51.5709 63.6946 51.9767 63.6946 52.4158C63.6946 53.4545 63.9451 54.3588 64.4571 55.1166C64.9656 55.8691 65.6712 56.442 66.5648 56.837L66.5648 56.837L66.5697 56.839C67.4758 57.2168 68.5217 57.4022 69.702 57.4022C71.1932 57.4022 72.4781 57.0766 73.545 56.4126L73.545 56.4126L73.5472 56.4112C74.6055 55.7369 75.3817 54.854 75.8677 53.764L75.8687 53.7618C75.9973 53.4656 76.0075 53.1661 75.8617 52.8906C75.717 52.6018 75.4546 52.4224 75.1212 52.3335C74.8468 52.2552 74.5731 52.2879 74.3124 52.4192L74.3124 52.4191L74.3057 52.4227C74.0625 52.5547 73.8774 52.7528 73.7512 53.0072L73.7502 53.0091C73.4286 53.6714 72.9246 54.2102 72.2286 54.6255C71.5556 55.0209 70.7248 55.2252 69.7245 55.2252C68.4984 55.2252 67.5869 54.9602 66.9569 54.4641C66.3334 53.9581 66.0163 53.2629 66.0163 52.3479C66.0163 51.8943 66.1314 51.4965 66.3583 51.1469C66.4782 50.9621 66.6394 50.8029 66.847 50.6716H75.1221C75.3616 50.6716 75.5746 50.5888 75.7327 50.4105C75.9022 50.2364 75.9793 50.013 75.9793 49.7644C75.9793 49.527 75.9 49.3153 75.7377 49.1461C75.5835 48.9537 75.37 48.8572 75.1221 48.8572H63.6072C63.3549 48.8572 63.1369 48.9565 62.97 49.1458L62.9699 49.1458L62.9687 49.1472C62.819 49.3196 62.75 49.5314 62.75 49.7644C62.75 50.0068 62.8158 50.2282 62.9687 50.4042L62.9741 50.4105L62.98 50.4164C63.1497 50.5875 63.3649 50.6716 63.6072 50.6716Z" fill="#159822" stroke="#159822" stroke-width="0.5"/>
<ellipse cx="67.6384" cy="154.674" rx="7.5" ry="7.55732" fill="#159822"/>
<path fill-rule="evenodd" clip-rule="evenodd" d="M67.6384 133.009C103.813 133.009 133.138 103.459 133.138 67.0082C133.138 30.5571 103.813 1.00764 67.6384 1.00764C31.4638 1.00764 2.13843 30.5571 2.13843 67.0082C2.13843 103.459 31.4638 133.009 67.6384 133.009ZM67.6384 134.016C104.365 134.016 134.138 104.016 134.138 67.0082C134.138 30.0006 104.365 0 67.6384 0C30.9115 0 1.13843 30.0006 1.13843 67.0082C1.13843 104.016 30.9115 134.016 67.6384 134.016Z" fill="#D1D1D1"/>
<path fill-rule="evenodd" clip-rule="evenodd" d="M3.11637 67.5117C3.11637 103.419 32.0039 132.527 67.6384 132.527C103.273 132.527 132.16 103.419 132.16 67.5117H135.138C135.138 105.076 104.918 135.528 67.6384 135.528C30.3592 135.528 0.138428 105.076 0.138428 67.5117H3.11637Z" fill="#159822"/>
<path fill-rule="evenodd" clip-rule="evenodd" d="M66.1384 148.124L66.1384 134.017L69.1384 134.017L69.1384 148.124L66.1384 148.124Z" fill="#159822"/>
</svg>
