<svg width="136" height="163" viewBox="0 0 136 163" fill="none" xmlns="http://www.w3.org/2000/svg">
<ellipse cx="68.1866" cy="67.1717" rx="58.5" ry="58.9471" fill="#D1D1D1"/>
<path d="M83.9902 58.2702C89.6391 58.2702 94.235 53.639 94.235 47.9466C94.235 42.2543 89.6391 37.623 83.9902 37.623C78.3412 37.623 73.7453 42.2543 73.7453 47.9466C73.7453 53.639 78.3412 58.2702 83.9902 58.2702ZM83.9902 40.2039C88.2278 40.2039 91.6738 43.6764 91.6738 47.9466C91.6738 52.2168 88.2278 55.6893 83.9902 55.6893C79.7525 55.6893 76.3065 52.2168 76.3065 47.9466C76.3065 43.6764 79.7525 40.2039 83.9902 40.2039Z" fill="#159822"/>
<path d="M39.1691 54.3993H63.5006V51.8184H37.8885C37.1801 51.8184 36.6079 52.3949 36.6079 53.1088V85.3701C36.6079 86.084 37.1801 86.6606 37.8885 86.6606H50.6946V84.0797H39.1691V54.3993Z" fill="#159822"/>
<path d="M103.199 84.0797H76.3066V86.6606H104.48C105.188 86.6606 105.761 86.084 105.761 85.3701V51.8184H103.199V84.0797Z" fill="#159822"/>
<path d="M77.0828 79.1201C77.0828 86.6962 70.991 92.8182 63.5006 92.8182C56.0102 92.8182 49.9184 86.6962 49.9184 79.1201C49.9184 71.5439 56.0102 65.4219 63.5006 65.4219C70.991 65.4219 77.0828 71.5439 77.0828 79.1201Z" stroke="#159822" stroke-width="3"/>
<path fill-rule="evenodd" clip-rule="evenodd" d="M101.919 46.6567H104.48C108.01 46.6567 110.883 49.5514 110.883 53.109V85.3703C110.883 88.9279 108.01 91.8226 104.48 91.8226H77.5872V96.9844H80.1484C86.5039 96.9844 91.6739 102.194 91.6739 108.598C91.6739 109.312 91.1017 109.889 90.3933 109.889H51.9751C51.2666 109.889 50.6945 109.312 50.6945 108.598C50.6945 102.194 55.8644 96.9844 62.2199 96.9844H64.7811V94.2639C65.6584 94.1896 66.5143 94.0396 67.3424 93.8205V96.9844H75.026V91.8226H71.784C72.8816 91.0944 73.8791 90.2256 74.7515 89.2417H104.48C106.598 89.2417 108.322 87.5045 108.322 85.3703V53.109C108.322 50.9748 106.598 49.2376 104.48 49.2376H101.919V51.8186C101.919 52.2124 101.741 52.5835 101.434 52.8292C101.128 53.0743 100.728 53.1607 100.349 53.0769L98.6134 52.6742C98.3433 53.523 98 54.3478 97.5879 55.1392L98.7635 55.8928C99.0911 56.1026 99.3063 56.4511 99.3488 56.8398C99.3907 57.228 99.2562 57.6155 98.9811 57.8928L93.8587 63.0546C93.5848 63.3318 93.2065 63.466 92.8138 63.4251C92.4292 63.3822 92.0822 63.1655 91.8734 62.8353L91.1255 61.6507C90.3408 62.0659 89.5222 62.4119 88.68 62.6841L89.0795 64.4326C89.1677 64.8157 89.077 65.2183 88.8338 65.5258C88.5912 65.834 88.2229 66.0135 87.8321 66.0135H80.1484C79.7576 66.0135 79.3893 65.834 79.1442 65.5233C78.901 65.2146 78.8115 64.8132 78.8985 64.4301L79.2993 62.6778C78.4758 62.4043 77.6629 62.0533 76.8675 61.6249L76.104 62.834C75.8958 63.1642 75.5512 63.381 75.1642 63.4238C74.774 63.466 74.3944 63.3305 74.1193 63.0533L68.9969 57.8915C68.7218 57.6155 68.5873 57.2267 68.6292 56.8386C68.6717 56.4498 68.8868 56.1014 69.2145 55.8909L70.4144 55.1222C69.9892 54.3207 69.6409 53.5028 69.3696 52.6717L67.6306 53.0756C67.2529 53.1619 66.8496 53.0731 66.5457 52.828C66.24 52.5835 66.0617 52.2124 66.0617 51.8186V49.2376H37.8884C35.7705 49.2376 34.0466 50.9748 34.0466 53.109V85.3703C34.0466 87.5045 35.7705 89.2417 37.8884 89.2417H52.2497C53.1221 90.2256 54.1196 91.0944 55.2172 91.8226H37.8884C34.358 91.8226 31.4854 88.9279 31.4854 85.3703V53.109C31.4854 49.5514 34.358 46.6567 37.8884 46.6567H66.0617V44.0758C66.0617 43.682 66.24 43.3109 66.547 43.0652C66.8521 42.82 67.2529 42.7337 67.6319 42.8175L69.3671 43.2202C69.6372 42.3714 69.9805 41.5466 70.3925 40.7552L69.217 40.0016C68.8893 39.7918 68.6742 39.4433 68.6317 39.0545C68.5898 38.6664 68.7243 38.2789 68.9994 38.0016L74.1218 32.8398C74.3957 32.5638 74.774 32.4284 75.1667 32.4693C75.5512 32.5122 75.8983 32.7289 76.1071 33.0591L76.855 34.2437C77.6397 33.8285 78.4582 33.4825 79.3005 33.2103L78.901 31.4618C78.8128 31.0787 78.9035 30.6761 79.1467 30.3686C79.3893 30.0604 79.7576 29.8809 80.1484 29.8809H87.8321C88.2229 29.8809 88.5912 30.0604 88.8363 30.3711C89.0795 30.6798 89.1689 31.0812 89.082 31.4643L88.6812 33.2166C89.5047 33.4901 90.3176 33.8411 91.113 34.2695L91.8765 33.0604C92.0847 32.7302 92.4292 32.5134 92.8163 32.4706C93.2096 32.4309 93.586 32.5651 93.8612 32.8411L98.9836 38.0029C99.2587 38.2789 99.3932 38.6677 99.3513 39.0558C99.3088 39.4446 99.0937 39.793 98.766 40.0035L97.5661 40.7722C97.9913 41.5737 98.3395 42.3916 98.6109 43.2227L100.35 42.8188C100.73 42.735 101.131 42.8213 101.435 43.0664C101.741 43.3109 101.919 43.682 101.919 44.0758V46.6567ZM69.9855 46.0153L68.623 45.6977V50.1967L69.9855 49.8791C70.3144 49.8016 70.6627 49.8596 70.9522 50.0429C71.2392 50.225 71.4443 50.5136 71.5212 50.8482C71.832 52.2124 72.4035 53.5595 73.2214 54.8525C73.4046 55.1417 73.4646 55.4914 73.3921 55.8254C73.3189 56.1593 73.1163 56.4498 72.83 56.6344L71.9383 57.2059L74.8021 60.0918L75.3693 59.1933C75.5525 58.906 75.8408 58.7018 76.1722 58.6268C76.5011 58.5563 76.8506 58.6155 77.1376 58.7988C78.4207 59.623 79.7576 60.1989 81.1114 60.5121C81.4434 60.5883 81.7298 60.795 81.9105 61.0855C82.0912 61.3753 82.15 61.7269 82.0731 62.0596L81.7579 63.4326H86.2225L85.9074 62.0596C85.8305 61.7269 85.8893 61.3741 86.07 61.0855C86.2507 60.7963 86.5371 60.5896 86.8691 60.5121C88.2842 60.1844 89.626 59.6155 90.8566 58.8259C91.1449 58.6413 91.4907 58.5821 91.824 58.6527C92.1554 58.7264 92.4436 58.9305 92.6268 59.2191L93.1771 60.0918L96.0422 57.2047L95.1762 56.6502C94.891 56.4656 94.6884 56.1751 94.614 55.8411C94.5409 55.5053 94.6028 55.1556 94.786 54.8664C95.5707 53.6263 96.1341 52.2741 96.4593 50.8482C96.5349 50.5136 96.74 50.225 97.0283 50.0429C97.3159 49.8608 97.6648 49.8028 97.995 49.8791L99.3575 50.1967V45.6977L97.995 46.0153C97.663 46.0903 97.3159 46.0348 97.0283 45.8515C96.7413 45.6694 96.5362 45.3808 96.4593 45.0462C96.1485 43.682 95.577 42.3349 94.7591 41.0419C94.5759 40.7527 94.5159 40.403 94.5884 40.069C94.6616 39.7351 94.8641 39.4446 95.1505 39.26L96.0422 38.6884L93.1783 35.8026L92.6112 36.7011C92.428 36.9884 92.1397 37.1926 91.8083 37.2676C91.4782 37.3381 91.1311 37.2789 90.8429 37.0955C89.5598 36.2714 88.2229 35.6955 86.8691 35.3823C86.5371 35.3061 86.2507 35.0994 86.07 34.8089C85.8893 34.5191 85.8305 34.1675 85.9074 33.8348L86.2225 32.4618H81.7579L82.0731 33.8348C82.15 34.1675 82.0912 34.5203 81.9105 34.8089C81.7298 35.0981 81.4434 35.3048 81.1114 35.3823C79.6963 35.7099 78.3544 36.2789 77.1239 37.0685C76.8369 37.2543 76.4936 37.3167 76.1565 37.2417C75.8251 37.168 75.5369 36.9639 75.3536 36.6753L74.8034 35.8026L71.9383 38.6897L72.8043 39.2442C73.0895 39.4288 73.292 39.7193 73.3665 40.0533C73.4396 40.3891 73.3777 40.7388 73.1945 41.028C72.4098 42.2681 71.8464 43.6203 71.5212 45.0462C71.4455 45.3808 71.2404 45.6694 70.9522 45.8515C70.6646 46.0348 70.3156 46.0915 69.9855 46.0153ZM53.3463 107.308H89.022C88.398 102.936 84.6574 99.5653 80.1484 99.5653H62.2199C57.7109 99.5653 53.9691 102.936 53.3463 107.308Z" fill="#159822"/>
<path d="M70.0266 73.3484C69.5476 72.9097 68.8027 72.9441 68.365 73.4291L61.1867 81.3941L57.7188 77.8415C57.261 77.3743 56.5173 77.3672 56.0548 77.8273C55.5912 78.2862 55.5841 79.0368 56.0407 79.504L60.3818 83.9508C60.6042 84.1784 60.9054 84.3053 61.2208 84.3053C61.2278 84.3053 61.2361 84.3053 61.2431 84.3065C61.5679 84.2994 61.8739 84.1595 62.0916 83.9176L70.1065 75.024C70.5431 74.5378 70.5078 73.7884 70.0266 73.3484Z" fill="#159822"/>
<ellipse cx="68.1866" cy="154.674" rx="7.5" ry="7.55732" fill="#159822"/>
<path fill-rule="evenodd" clip-rule="evenodd" d="M68.1866 133.009C104.361 133.009 133.687 103.459 133.687 67.0082C133.687 30.5571 104.361 1.00764 68.1866 1.00764C32.012 1.00764 2.68665 30.5571 2.68665 67.0082C2.68665 103.459 32.012 133.009 68.1866 133.009ZM68.1866 134.016C104.914 134.016 134.687 104.016 134.687 67.0082C134.687 30.0006 104.914 0 68.1866 0C31.4597 0 1.68665 30.0006 1.68665 67.0082C1.68665 104.016 31.4597 134.016 68.1866 134.016Z" fill="#D1D1D1"/>
<path fill-rule="evenodd" clip-rule="evenodd" d="M3.66459 67.5117C3.66459 103.419 32.5521 132.527 68.1866 132.527C103.821 132.527 132.709 103.419 132.709 67.5117H135.687C135.687 105.076 105.466 135.528 68.1866 135.528C30.9074 135.528 0.686646 105.076 0.686646 67.5117H3.66459Z" fill="#159822"/>
<path fill-rule="evenodd" clip-rule="evenodd" d="M66.6866 148.124L66.6866 134.017L69.6866 134.017L69.6866 148.124L66.6866 148.124Z" fill="#159822"/>
</svg>
