<svg width="136" height="161" viewBox="0 0 136 161" fill="none" xmlns="http://www.w3.org/2000/svg">
<circle cx="68.0204" cy="66.6621" r="58.5" fill="#D1D1D1"/>
<path d="M54.1844 60.7002H51.6484V63.2363H54.1844V60.7002Z" fill="#159822"/>
<path d="M66.8641 60.7002H64.3281V63.2363H66.8641V60.7002Z" fill="#159822"/>
<path d="M108.888 74.6612L103.934 73.9536C103.698 73.2608 103.42 72.5832 103.1 71.9248L106.098 67.9279C106.281 67.6837 106.37 67.3817 106.348 67.0772C106.327 66.7728 106.196 66.4864 105.98 66.2706L100.6 60.8903C100.393 60.6851 100.122 60.5582 99.8316 60.5315V48.3254C101.018 47.3755 101.976 46.1712 102.634 44.8014C103.293 43.4316 103.635 41.9314 103.636 40.4116C103.647 38.4898 103.107 36.6051 102.079 34.9814C101.051 33.3576 99.579 32.063 97.8371 31.2513C97.6439 31.16 97.4307 31.1191 97.2174 31.1323C97.0041 31.1455 96.7976 31.2124 96.6171 31.3267C96.4366 31.4411 96.2879 31.5992 96.1848 31.7865C96.0818 31.9737 96.0277 32.1839 96.0277 32.3976V39.4986L93.4917 40.3444L90.9558 39.4986V32.3976C90.9549 32.1843 90.9002 31.9747 90.7968 31.7882C90.6934 31.6017 90.5446 31.4442 90.3642 31.3304C90.1838 31.2167 89.9777 31.1502 89.7648 31.1373C89.5519 31.1243 89.3392 31.1653 89.1464 31.2564C87.4053 32.0677 85.9335 33.3615 84.9057 34.9843C83.8779 36.6071 83.3373 38.4907 83.3479 40.4116C83.3486 41.9314 83.6909 43.4316 84.3493 44.8014C85.0077 46.1712 85.9655 47.3755 87.1518 48.3254V56.896H83.3479C83.0428 56.896 82.7479 57.006 82.5173 57.2058C82.2867 57.4057 82.1359 57.6819 82.0926 57.984L81.2722 63.7269L83.7828 64.0858L84.4472 59.4321H89.8564L90.5209 64.0858C90.5554 64.3269 90.6587 64.5529 90.8184 64.7368C90.978 64.9208 91.1873 65.0549 91.4211 65.123C92.478 65.4284 93.4984 65.848 94.4643 66.3746C94.678 66.4917 94.9209 66.5449 95.164 66.5275C95.4071 66.5102 95.64 66.4232 95.835 66.2769L99.5894 63.4619L103.414 67.2863L100.592 71.0409C100.446 71.2359 100.359 71.4688 100.342 71.7119C100.325 71.955 100.378 72.198 100.495 72.4117C101.021 73.3776 101.441 74.3981 101.746 75.455C101.814 75.6888 101.949 75.898 102.132 76.0577C102.316 76.2174 102.542 76.3207 102.783 76.3553L107.437 77.0197V82.4291L102.783 83.0936C102.542 83.1282 102.316 83.2315 102.132 83.3912C101.949 83.5508 101.814 83.7601 101.746 83.9939C101.441 85.0508 101.021 86.0712 100.495 87.0372C100.378 87.2509 100.325 87.4938 100.342 87.7369C100.359 87.98 100.446 88.213 100.592 88.4079L103.407 92.1626L99.5831 95.987L95.8312 93.1618C95.6362 93.0155 95.4033 92.9285 95.1602 92.9112C94.9171 92.8939 94.6742 92.947 94.4605 93.0641C93.4946 93.5907 92.4742 94.0103 91.4173 94.3157C91.1835 94.3839 90.9742 94.5179 90.8146 94.7019C90.6549 94.8858 90.5516 95.1118 90.517 95.3529L89.8564 100.009H84.6159V94.6467C84.615 93.307 84.4228 91.9744 84.0453 90.6891C86.4604 91.3962 89.0404 91.2952 91.3929 90.4015C93.7454 89.5077 95.7417 87.8702 97.0783 85.7378C98.4148 83.6054 99.0184 81.0949 98.7974 78.588C98.5764 76.0811 97.5427 73.7149 95.8537 71.8493C94.1646 69.9838 91.9126 68.7208 89.44 68.2526C86.9674 67.7843 84.4096 68.1364 82.1554 69.2552C79.9012 70.374 78.0741 72.1984 76.9518 74.4509C75.8295 76.7034 75.4734 79.2608 75.9378 81.7343C75.9074 81.7216 75.8782 81.7064 75.8478 81.695L65.5962 77.5941V75.6452C67.2905 74.7783 68.7913 73.5764 70.0075 72.1124H73.2041C74.2129 72.1124 75.1805 71.7116 75.8938 70.9982C76.6072 70.2848 77.008 69.3172 77.008 68.3083V65.5389C77.7471 65.2776 78.3874 64.7943 78.8414 64.1551C79.2953 63.5159 79.5407 62.7521 79.5439 61.9681V58.164C79.5407 57.3801 79.2953 56.6162 78.8414 55.9771C78.3874 55.3379 77.7471 54.8546 77.008 54.5933V53.0919C77.008 48.3837 75.1377 43.8683 71.8086 40.539C68.4795 37.2098 63.9643 35.3394 59.2563 35.3394C54.5482 35.3394 50.033 37.2098 46.7039 40.539C43.3748 43.8683 41.5046 48.3837 41.5046 53.0919V54.5933C40.7654 54.8546 40.1251 55.3379 39.6712 55.9771C39.2172 56.6162 38.9718 57.3801 38.9686 58.164V61.9681C38.9686 62.9771 39.3694 63.9446 40.0827 64.6581C40.7961 65.3715 41.7637 65.7723 42.7725 65.7723H45.3085C45.3896 65.7723 45.4683 65.7596 45.5481 65.7545C45.938 67.8569 46.805 69.8418 48.0824 71.5565C49.3598 73.2712 51.0135 74.67 52.9164 75.6452V77.5941L42.6648 81.695C40.0712 82.7228 37.8475 84.5083 36.2835 86.8186C34.7194 89.1288 33.8877 91.8567 33.8967 94.6467V106.349C33.8967 106.686 34.0303 107.008 34.2681 107.246C34.5059 107.484 34.8284 107.617 35.1647 107.617H83.3479C83.6842 107.617 84.0067 107.484 84.2445 107.246C84.4823 107.008 84.6159 106.686 84.6159 106.349V102.545H90.9558C91.2609 102.545 91.5558 102.435 91.7864 102.235C92.017 102.036 92.1677 101.759 92.2111 101.457L92.9186 96.5031C93.6114 96.2674 94.2889 95.9892 94.9474 95.67L98.944 98.6676C99.1882 98.8507 99.4902 98.9395 99.7947 98.9179C100.099 98.8962 100.385 98.7655 100.601 98.5497L105.981 93.1694C106.197 92.9536 106.328 92.6672 106.35 92.3627C106.371 92.0583 106.282 91.7563 106.099 91.5121L103.102 87.5152C103.421 86.8568 103.699 86.1792 103.935 85.4864L108.889 84.7788C109.19 84.7352 109.466 84.5845 109.666 84.3542C109.865 84.1239 109.975 83.8295 109.975 83.5247V75.9165C109.976 75.6114 109.866 75.3165 109.666 75.0859C109.466 74.8553 109.19 74.7045 108.888 74.6612ZM94.9398 63.7713C94.8802 63.7421 94.813 63.7231 94.7534 63.6952V48.0198H92.2237V58.0753L92.2111 57.984C92.1677 57.6819 92.017 57.4057 91.7864 57.2058C91.5558 57.006 91.2609 56.896 90.9558 56.896H89.6878V47.6901C89.6878 47.4856 89.6383 47.2841 89.5436 47.1028C89.4489 46.9215 89.3117 46.7658 89.1438 46.649C88.2013 45.9928 87.4195 45.1316 86.8572 44.1302C86.2948 43.1287 85.9665 42.0129 85.8969 40.8665C85.8272 39.72 86.018 38.5727 86.4549 37.5105C86.8919 36.4483 87.5636 35.4989 88.4198 34.7333V40.4116C88.4197 40.6778 88.5035 40.9373 88.6591 41.1533C88.8148 41.3693 89.0345 41.5308 89.2871 41.6149L93.091 42.883C93.3511 42.9696 93.6323 42.9696 93.8924 42.883L97.6964 41.6149C97.9489 41.5308 98.1686 41.3693 98.3243 41.1533C98.48 40.9373 98.5637 40.6778 98.5636 40.4116V34.7333C99.4205 35.4989 100.093 36.4485 100.53 37.5111C100.968 38.5737 101.159 39.7215 101.089 40.8685C101.019 42.0154 100.691 43.1317 100.128 44.1335C99.5652 45.1353 98.7829 45.9967 97.8396 46.6528C97.6723 46.7693 97.5354 46.9243 97.4407 47.1049C97.346 47.2855 97.2963 47.4862 97.2957 47.6901V62.01L94.9398 63.7713ZM78.276 79.7206C78.262 77.7379 78.9076 75.8068 80.1111 74.2312C81.3146 72.6555 83.0078 71.5247 84.9242 71.0166C86.8407 70.5085 88.8717 70.6519 90.6977 71.4244C92.5237 72.1969 94.0411 73.5545 95.0112 75.2837C95.9813 77.0129 96.349 79.0156 96.0564 80.9766C95.7639 82.9377 94.8278 84.7458 93.3953 86.1166C91.9628 87.4874 90.1152 88.3431 88.1433 88.549C86.1713 88.7549 84.1869 88.2993 82.5021 87.254C81.6256 85.8498 80.5043 84.6142 79.1915 83.6059C78.5882 82.3997 78.2747 81.0693 78.276 79.7206ZM73.2041 69.5764H71.6647C72.2826 68.3729 72.7205 67.0852 72.9644 65.7545C73.0443 65.7545 73.1229 65.7723 73.2041 65.7723H74.472V68.3083C74.472 68.6446 74.3384 68.9672 74.1007 69.205C73.8629 69.4428 73.5403 69.5764 73.2041 69.5764ZM70.6681 55.628C70.0778 55.6265 69.4959 55.4884 68.9679 55.2244C68.4399 54.9604 67.9803 54.5777 67.6249 54.1063L65.3426 51.0631C65.2407 50.9272 65.1125 50.8132 64.9657 50.7278C64.8189 50.6424 64.6564 50.5874 64.488 50.566C64.3194 50.5453 64.1485 50.5583 63.985 50.6042C63.8215 50.6502 63.6688 50.7281 63.5357 50.8335L59.2804 54.2331C58.1576 55.1317 56.7635 55.6233 55.3255 55.628H47.8445V54.3599C47.8445 51.3332 49.0468 48.4305 51.1869 46.2902C53.327 44.15 56.2297 42.9476 59.2563 42.9476C62.2829 42.9476 65.1855 44.15 67.3256 46.2902C69.4658 48.4305 70.6681 51.3332 70.6681 54.3599V55.628ZM77.008 61.9681C77.008 62.3045 76.8744 62.627 76.6366 62.8648C76.3988 63.1026 76.0763 63.2362 75.74 63.2362H73.2041V56.896H75.74C76.0763 56.896 76.3988 57.0296 76.6366 57.2674C76.8744 57.5052 77.008 57.8277 77.008 58.164V61.9681ZM59.2563 37.8755C63.2904 37.8799 67.1581 39.4844 70.0106 42.3371C72.8632 45.1898 74.4677 49.0576 74.472 53.0919V54.3599H73.2041C73.2041 50.6606 71.7346 47.1128 69.1188 44.497C66.5031 41.8811 62.9555 40.4116 59.2563 40.4116C55.5571 40.4116 52.0094 41.8811 49.3937 44.497C46.778 47.1128 45.3085 50.6606 45.3085 54.3599H44.0405V53.0919C44.0449 49.0576 45.6494 45.1898 48.5019 42.3371C51.3545 39.4844 55.2221 37.8799 59.2563 37.8755ZM42.7725 63.2362C42.4362 63.2362 42.1137 63.1026 41.8759 62.8648C41.6381 62.627 41.5046 62.3045 41.5046 61.9681V58.164C41.5046 57.8277 41.6381 57.5052 41.8759 57.2674C42.1137 57.0296 42.4362 56.896 42.7725 56.896H45.3085V63.2362H42.7725ZM47.8445 63.2362V58.164H55.3255C57.3402 58.1614 59.2945 57.4756 60.8691 56.2189L64.1038 53.6308L65.5962 55.628C66.1884 56.4136 66.9545 57.0514 67.8345 57.4914C68.7144 57.9314 69.6843 58.1616 70.6681 58.164V63.2362C70.6702 65.4946 69.9982 67.7022 68.7382 69.5764H59.2563V72.1124H66.4128C64.7382 73.4664 62.7145 74.3184 60.5758 74.5698C58.4372 74.8213 56.271 74.4618 54.3282 73.533C52.3853 72.6043 50.7452 71.1443 49.5978 69.322C48.4503 67.4997 47.8424 65.3897 47.8445 63.2362ZM59.2563 77.1846C60.5431 77.1814 61.8233 76.9996 63.0602 76.6444V78.4526C63.0602 79.4615 62.6594 80.4291 61.9461 81.1425C61.2327 81.8559 60.2651 82.2567 59.2563 82.2567C58.2474 82.2567 57.2799 81.8559 56.5665 81.1425C55.8531 80.4291 55.4523 79.4615 55.4523 78.4526V76.6444C56.6892 76.9996 57.9694 77.1814 59.2563 77.1846ZM82.0799 105.081H74.472V91.1329H71.9361V105.081H46.5765V91.1329H44.0405V105.081H36.4326V94.6467C36.4253 92.3639 37.1058 90.1319 38.3855 88.2417C39.6652 86.3514 41.4848 84.8906 43.6069 84.0497L53.1966 80.2139C53.5711 81.5324 54.3653 82.6928 55.4589 83.5191C56.5525 84.3454 57.8857 84.7924 59.2563 84.7924C60.6269 84.7924 61.9601 84.3454 63.0537 83.5191C64.1472 82.6928 64.9415 81.5324 65.3159 80.2139L74.9057 84.0497C77.0278 84.8906 78.8473 86.3514 80.127 88.2417C81.4068 90.1319 82.0873 92.3639 82.0799 94.6467V105.081Z" fill="#159822"/>
<path d="M88.4197 61.9678H85.8838V64.5038H88.4197V61.9678Z" fill="#159822"/>
<path d="M88.4197 94.9375H85.8838V97.4736H88.4197V94.9375Z" fill="#159822"/>
<path d="M98.8064 89.5836L97.0132 91.377L98.8064 93.1703L100.6 91.377L98.8064 89.5836Z" fill="#159822"/>
<path d="M104.904 78.4521H102.368V80.9883H104.904V78.4521Z" fill="#159822"/>
<path d="M98.807 66.2712L97.0138 68.0645L98.807 69.8577L100.6 68.0645L98.807 66.2712Z" fill="#159822"/>
<circle cx="68.0204" cy="153.5" r="7.5" fill="#159822"/>
<path fill-rule="evenodd" clip-rule="evenodd" d="M68.0204 132C104.195 132 133.52 102.675 133.52 66.5C133.52 30.3253 104.195 1 68.0204 1C31.8457 1 2.52039 30.3253 2.52039 66.5C2.52039 102.675 31.8457 132 68.0204 132ZM68.0204 133C104.747 133 134.52 103.227 134.52 66.5C134.52 29.7731 104.747 0 68.0204 0C31.2934 0 1.52039 29.7731 1.52039 66.5C1.52039 103.227 31.2934 133 68.0204 133Z" fill="#D1D1D1"/>
<path fill-rule="evenodd" clip-rule="evenodd" d="M3.49833 67C3.49833 102.635 32.3858 131.522 68.0204 131.522C103.655 131.522 132.542 102.635 132.542 67H135.52C135.52 104.279 105.3 134.5 68.0204 134.5C30.7412 134.5 0.520386 104.279 0.520386 67H3.49833Z" fill="#159822"/>
<path fill-rule="evenodd" clip-rule="evenodd" d="M66.5204 147L66.5204 133L69.5204 133L69.5204 147L66.5204 147Z" fill="#159822"/>
</svg>
