<svg width="136" height="164" viewBox="0 0 136 164" fill="none" xmlns="http://www.w3.org/2000/svg">
<ellipse cx="67.5" cy="67.739" rx="58.5" ry="59.4451" fill="#D1D1D1"/>
<path d="M104.361 42.0789L104.251 42.0592C91.6061 39.8062 79.6465 35.2047 68.7043 28.3827C68.1814 28.0568 67.5223 28.0573 67 28.3846C56.134 35.1921 44.2495 39.7796 31.6764 42.02L31.3457 42.0789C30.5675 42.2176 30 42.9042 30 43.707V65.3437C30 76.364 33.743 87.1625 40.5396 95.7502C47.3361 104.338 56.9125 110.369 67.5047 112.732C67.6199 112.758 67.7366 112.77 67.8538 112.77C67.971 112.77 68.0883 112.758 68.2035 112.732C78.7966 110.363 88.3733 104.327 95.169 95.7365C101.965 87.1457 105.708 76.3442 105.708 65.3217V43.707C105.708 42.9039 105.14 42.2172 104.361 42.0789ZM102.454 65.3217C102.454 86.2726 87.9252 104.761 67.8534 109.424C47.7822 104.771 33.2532 86.2921 33.2532 65.3437V45.0901C45.5314 42.7759 57.1638 38.2835 67.856 31.7264C78.5579 38.2592 90.1864 42.7497 102.454 45.0876V65.3217Z" fill="#159822"/>
<path d="M67.8167 40.1483C68.0893 40.1483 68.3655 40.0786 68.6195 39.9319L68.636 39.9225C68.6367 39.922 68.6499 39.9146 68.6505 39.9143C69.4333 39.4675 69.7055 38.4639 69.2665 37.6682C68.8272 36.8723 67.8302 36.5925 67.047 37.0378L67.0112 37.0583C66.2303 37.5095 65.9573 38.5187 66.4014 39.3122C66.7012 39.8478 67.2508 40.1483 67.8167 40.1483Z" fill="#159822"/>
<path d="M60.6551 40.4074C53.6361 43.8094 46.2238 46.4381 38.6242 48.22C37.8861 48.393 37.3633 49.0608 37.3633 49.8306V65.3216C37.3633 67.1122 37.4822 68.9202 37.7163 70.6952C37.8256 71.5255 38.5239 72.1287 39.3263 72.1287C39.3982 72.1287 39.471 72.1239 39.5444 72.1138C40.4348 71.9925 41.0598 71.1607 40.9404 70.2558C40.7253 68.626 40.6163 66.9658 40.6163 65.3216V51.1376C48.0052 49.3118 55.2119 46.7083 62.0554 43.3913C62.8665 42.9984 63.2102 42.0118 62.8235 41.1877C62.4365 40.3637 61.4655 40.0146 60.6551 40.4074Z" fill="#159822"/>
<path d="M96.7175 48.1777C95.8193 48.1777 95.0909 48.9178 95.0909 49.8307V65.3216C95.0909 80.0175 86.5464 93.5011 73.3226 99.6728C72.5064 100.054 72.1484 101.035 72.5233 101.865C72.7974 102.471 73.3867 102.828 74.0026 102.828C74.2298 102.828 74.4606 102.78 74.6804 102.677C81.653 99.4229 87.5717 94.2134 91.797 87.6118C96.0802 80.9195 98.3441 73.2118 98.3441 65.3216V49.8307C98.3441 48.9179 97.6157 48.1777 96.7175 48.1777Z" fill="#159822"/>
<path d="M67.4984 101.804L67.4364 101.821C66.5681 102.055 66.051 102.96 66.2815 103.842C66.4748 104.583 67.1327 105.072 67.8525 105.072C67.9906 105.072 68.1311 105.054 68.2708 105.016L68.3328 104.999C69.201 104.765 69.7181 103.86 69.4876 102.978C69.2572 102.095 68.3661 101.57 67.4984 101.804Z" fill="#159822"/>
<path d="M89.6678 70.7627C90.7264 69.0142 90.4608 66.787 89.0216 65.3464L87.3315 63.6546C87.1106 63.4336 86.9968 63.1268 87.0187 62.8129L87.1881 60.3961C87.3322 58.339 86.0758 56.4865 84.1328 55.8911L81.8946 55.2055C81.5961 55.1141 81.3537 54.8949 81.2296 54.6041L80.2929 52.4078C79.4929 50.5332 77.4798 49.4588 75.5078 49.8517L73.2368 50.3046C72.9298 50.3657 72.6131 50.2864 72.3691 50.0862L70.5616 48.6032C68.9924 47.316 66.715 47.3157 65.146 48.6032L63.3382 50.0864C63.0943 50.2866 62.7776 50.3657 62.4705 50.3046L60.1995 49.8518C58.2267 49.4583 56.2141 50.5332 55.4146 52.4075L54.4772 54.6044C54.3531 54.8949 54.1109 55.1141 53.8124 55.2055L51.5747 55.8911C49.6317 56.4864 48.3753 58.3388 48.5194 60.3961L48.6887 62.8127C48.7107 63.1268 48.5967 63.4336 48.3761 63.6544L46.6859 65.3464C45.2466 66.7871 44.9809 69.0143 46.0396 70.7627L47.2893 72.8264C47.4515 73.094 47.4901 73.4193 47.3956 73.7183L46.6641 76.0294C46.0448 77.9868 46.8276 80.0871 48.5672 81.1367L50.5928 82.3589C50.8601 82.5202 51.0432 82.7911 51.0955 83.1022L51.494 85.4785C51.8362 87.5183 53.4955 89.0147 55.5293 89.1174L57.8495 89.2346C58.1618 89.2504 58.4495 89.4045 58.6389 89.6576L60.0534 91.5487C60.8862 92.6623 62.1808 93.2739 63.4999 93.2739C64.1123 93.2739 64.7301 93.142 65.309 92.8668L67.4063 91.8715C67.6907 91.7367 68.0166 91.7368 68.301 91.8715L70.3982 92.8668C72.2245 93.7333 74.4349 93.1789 75.6541 91.5482L77.0681 89.6574C77.2574 89.4043 77.5452 89.2501 77.8575 89.2344L80.1782 89.1172C82.2119 89.0146 83.8712 87.5181 84.2135 85.4784L84.612 83.1022C84.6642 82.791 84.8474 82.5201 85.1146 82.3589L87.1402 81.1367C88.8799 80.0871 89.6626 77.9868 89.0432 76.0292L88.3121 73.7187C88.2174 73.4193 88.2559 73.0942 88.418 72.8266L89.6678 70.7627ZM86.8972 69.0304L85.6472 71.0944C84.9868 72.1856 84.8292 73.5109 85.215 74.7308L85.9462 77.0415C86.0982 77.5217 85.9061 78.0369 85.4793 78.2944L83.4537 79.5166C82.3645 80.1737 81.6181 81.2782 81.4051 82.547L81.0066 84.9231C80.9225 85.4233 80.5155 85.7905 80.0168 85.8156L77.6961 85.9328C76.4225 85.9972 75.2494 86.6259 74.478 87.6575L73.064 89.5485C72.7649 89.9483 72.2229 90.0845 71.7749 89.872L69.6777 88.8767C68.5184 88.3266 67.1892 88.3266 66.0299 88.8767L63.9325 89.872C63.4842 90.0844 62.9424 89.9482 62.6434 89.5485L61.2288 87.657C60.4573 86.6255 59.2845 85.9971 58.011 85.9328L55.6908 85.8156C55.1921 85.7905 54.7851 85.4233 54.701 84.9231L54.3025 82.5468C54.0896 81.278 53.343 80.1737 52.2539 79.5165L50.2283 78.2943C49.8015 78.0367 49.6094 77.5215 49.7613 77.0415L50.4928 74.7303C50.8785 73.5107 50.721 72.1854 50.0603 71.0941L48.8104 69.0302C48.5508 68.6014 48.616 68.0551 48.969 67.7017L50.6594 66.0097C51.5589 65.109 52.0236 63.8584 51.9338 62.5782L51.7645 60.1616C51.7292 59.6569 52.0373 59.2025 52.5139 59.0565L54.7516 58.3709C55.9686 57.998 56.9566 57.1044 57.462 55.9195L58.3994 53.7228C58.5685 53.3267 58.9582 53.0761 59.3723 53.0761C59.4389 53.0761 59.506 53.0826 59.573 53.096L61.844 53.5487C63.0986 53.7991 64.3877 53.4746 65.3818 52.6586L67.1897 51.1755C67.5744 50.8598 68.1331 50.8598 68.5181 51.1755L70.3256 52.6586C71.3198 53.4745 72.6092 53.7986 73.8635 53.5489L76.1344 53.096C76.6177 52.9993 77.112 53.2632 77.3082 53.7229L78.2449 55.9192C78.7505 57.1044 79.7387 57.9982 80.9555 58.3709L83.1938 59.0565C83.6702 59.2025 83.9784 59.6571 83.9431 60.1616L83.7738 62.5784C83.684 63.8584 84.1487 65.109 85.0484 66.0099L86.7386 67.7019C87.0916 68.0555 87.157 68.6016 86.8972 69.0304Z" fill="#159822"/>
<path d="M78.8871 61.9187C78.1315 61.2208 76.9565 61.2755 76.2661 62.047L64.9428 74.7176L59.4724 69.0661C58.7503 68.3229 57.5772 68.3116 56.8477 69.0435C56.1163 69.7735 56.1052 70.9676 56.8254 71.7108L63.6731 78.7846C64.024 79.1467 64.4991 79.3486 64.9966 79.3486C65.0077 79.3486 65.0207 79.3486 65.0319 79.3505C65.5442 79.3391 66.0269 79.1165 66.3702 78.7318L79.0132 64.5842C79.7019 63.8107 79.6462 62.6186 78.8871 61.9187Z" fill="#159822"/>
<ellipse cx="67.8544" cy="155.981" rx="7.5" ry="7.62116" fill="#159822"/>
<path fill-rule="evenodd" clip-rule="evenodd" d="M67.8544 134.132C104.029 134.132 133.354 104.333 133.354 67.5743C133.354 30.8153 104.029 1.01615 67.8544 1.01615C31.6797 1.01615 2.35437 30.8153 2.35437 67.5743C2.35437 104.333 31.6797 134.132 67.8544 134.132ZM67.8544 135.149C104.581 135.149 134.354 104.895 134.354 67.5743C134.354 30.254 104.581 0 67.8544 0C31.1274 0 1.35437 30.254 1.35437 67.5743C1.35437 104.895 31.1274 135.149 67.8544 135.149Z" fill="#D1D1D1"/>
<path fill-rule="evenodd" clip-rule="evenodd" d="M3.33231 68.082C3.33231 104.292 32.2198 133.646 67.8544 133.646C103.489 133.646 132.376 104.292 132.376 68.082H135.354C135.354 105.964 105.134 136.673 67.8544 136.673C30.5751 136.673 0.35437 105.964 0.35437 68.082H3.33231Z" fill="#159822"/>
<path fill-rule="evenodd" clip-rule="evenodd" d="M66.3544 149.375L66.3544 135.148L69.3544 135.148L69.3544 149.375L66.3544 149.375Z" fill="#159822"/>
</svg>
